<?xml version="1.0" encoding="UTF-8"?><svg id="Layer_2" xmlns="http://www.w3.org/2000/svg" viewBox="0 0 988.09 466.66"><g id="Layer_1-2"><path d="M357.29,417.84c4.25-1.14,7.12.23,7.92,3.21,1.38,5.14-2.31,11.78-9.06,13.59-3.44.92-6.38-.02-7.2-3.08-.98-3.65,1.43-6.72,2.24-7.62-.1-.2-.15-.37-.19-.54-.5-1.87,2.52-4.55,6.3-5.56ZM356.39,431.29c2.29-.62,3.44-6.89,2.74-9.48-.28-1.06-.76-1.3-1.57-1.08-1.15.31-2.17,1.95-1.75,3.48.24.89.74,1.21.85,1.64.07.25-.11.62-.45.71-.51.14-1.23.01-1.95-.3-.11.94-.12,2.08.18,3.23.41,1.53,1.09,2.03,1.94,1.8Z" fill="#2e3192"/><path d="M377.6,412.48c2.46-.66,4.2.38,4.95,3.18,1.36,5.06-1.27,12.41-6.58,13.84-1.78.48-3.41-.13-3.53-.1-.08.02-.12.08-.16.27-.43,2.12-1.02,6.74-.36,9.21.17.64.13,1.01-.54,1.19-2,.54-4.97-.35-5.39-1.92-.88-3.27,2.16-18.12,1.1-22.07-.11-.43.23-.84,1.04-1.05,3.53-.95,4.51,1.71,4.72,1.65.17-.05,1.57-3.34,4.75-4.19ZM376.82,417.2c-.15-.55-.61-.75-.99-.64-1.79.48-3.69,7.14-3.18,9.05.1.38.53.63.92.53,2.29-.62,3.97-6.26,3.25-8.94Z" fill="#2e3192"/><path d="M383.78,414.65c-.14-.51.14-2.36.56-3.02.32-.5.82-.68,1.42-.84.38-3.02.71-5.66.43-6.72-.1-.38.2-.78,1.01-1,1.79-.48,4.62.76,4.95,2,.16.6-.12,2.08-.36,4.1,1.78-.48,2.04-.73,2.5-.85.3-.08.47.06.55.35.42,1.57-.11,3.67-3.55,4.6-.49,2.59-1.45,9.54-1.02,11.16.17.64.1,1.07-.58,1.25-1.96.52-4.85.76-5.26-.77-.5-1.87,1.12-8.73.77-10.05-.43.11-1.27.34-1.42-.21Z" fill="#2e3192"/><path d="M400.09,421.8c.17.64.15,1.05-.53,1.24-2,.54-4.9.77-5.31-.76-.82-3.06,1.79-10.32.88-13.72-.11-.43.19-.83,1-1.04,2.55-.68,4.63.81,4.95,2,.66,2.46-1.85,9.06-.99,12.29ZM398.92,397.74c1.53-.41,2.94.26,3.36,1.83.58,2.17-.53,4.65-2.48,5.18-1.49.4-3.07-.23-3.48-1.75-.59-2.21.52-4.69,2.6-5.25Z" fill="#2e3192"/><path d="M402.33,406.62c-.11-.43.19-.83,1-1.04,3.57-.96,4.68,1.66,4.85,1.61.21-.06,1.69-3.37,4.92-4.24,3.4-.91,4.72,1.65,4.89,1.6.17-.05,1.99-3.45,5.26-4.33,2.12-.57,3.53.24,3.98,1.94.77,2.89-1.35,7.88-.64,10.51.38,1.4.82,1.37.96,1.88.1.38-.23,1.02-1.33,1.31-2.63.71-4.86.89-5.43-1.23-.62-2.29.95-7.32.5-9.02-.1-.38-.38-.58-.85-.46-.64.17-1.89,1.1-2.61,3.34-.87,2.69-1.38,6.93-.89,8.76.17.64.15,1.05-.53,1.24-2,.54-4.68.71-5.09-.82-.65-2.42.85-8.2.5-9.52-.1-.38-.47-.56-.89-.44-.64.17-1.24.65-1.96,2.89-.86,2.74-1.77,7.31-1.28,9.14.17.64.15,1.05-.53,1.24-2,.54-4.9.77-5.31-.76-.82-3.06,1.41-10.22.49-13.62Z" fill="#2e3192"/><path d="M433.97,412.71c.17.64.15,1.05-.53,1.24-2,.54-4.9.77-5.31-.76-.82-3.06,1.79-10.32.88-13.72-.11-.43.19-.83,1-1.04,2.55-.68,4.63.81,4.95,2,.66,2.46-1.85,9.06-.99,12.29ZM432.81,388.65c1.53-.41,2.94.26,3.36,1.83.58,2.17-.53,4.65-2.48,5.18-1.49.4-3.07-.23-3.48-1.75-.59-2.21.52-4.69,2.6-5.25Z" fill="#2e3192"/><path d="M446.57,400.45c-.47.13-.62-.11-.91-.67-.45-.84-1.24-1.72-2.21-1.46-.6.16-.88.64-.73,1.2.58,2.17,5.69,1.52,6.56,4.75.79,2.93-1.12,5.68-6.09,7.01-4.33,1.16-7.23-.47-7.54-1.62-.33-1.23,1.68-3.77,3.12-4.16.59-.16.83.05,1.01.37.69,1.36,1.94,2.12,2.87,1.87.51-.14.8-.58.68-1.05-.73-2.72-6.02-1.71-6.87-4.9-.76-2.85,2.17-5.68,6.5-6.85,3.48-.94,5.94.23,6.34,1.72.3,1.1-1.66,3.5-2.72,3.78Z" fill="#2e3192"/><path d="M463.71,399.58c.34-.09.77.16.87.54.21.76-1.03,5.83-7.7,7.62-2.89.77-5.78-.32-6.61-3.42-1.41-5.27,2.9-12.12,8.72-13.68,3.27-.88,5,.48,5.45,2.14.88,3.27-3.75,7.43-7.38,9.18.49.82,1.31,1.15,2.54.82,2.89-.77,3.47-3.03,4.11-3.2ZM456.45,399.53c2.56-1.51,4.32-4.12,3.96-5.44-.14-.51-.49-.64-.92-.53-1.36.36-3.06,3.19-3.05,5.96Z" fill="#2e3192"/><path d="M481.61,398.24c.39,1.44.72,1.49.86,2,.08.3-.08.57-.5.68-3.4.91-5.4-1.1-5.7-1.02-.55.15-2.46,3.21-5.95,4.15-2.12.57-4.08-.45-4.72-2.83-1.53-5.69,2.82-13.1,7.92-14.47,1.66-.44,2.91,0,3.04-.04.08-.02.16-.09.18-.18.65-4.73,1.21-9.43.81-10.92-.11-.43.19-.83,1-1.04,1.79-.48,4.64.81,4.95,2,.33,1.23-.42,6.4-1.22,11.58-.58,3.8-1.32,7.64-.66,10.11ZM471.38,398.84c.11.42.46.7.93.57,2.17-.58,4.04-8.19,3.74-9.34-.13-.47-.43-.57-.85-.46-2.59.7-4.55,6.46-3.81,9.22Z" fill="#2e3192"/><path d="M505.29,370.71c.4,1.49-1,4.41-2.06,4.7-.68.18-1.31-2.84-2.46-2.53-1.06.29-1.73,6.8-1.78,7.45,0,0,1.85-.59,2.4-.73.3-.08.43.07.52.41.21.77-.02,3.65-3.21,4.51-.34.09-.34.27-.43.62-.65,3.86-1.06,9.3-.73,10.54.17.64.15,1.05-.53,1.24-2,.54-4.9.77-5.31-.76-.3-1.1.27-6.81.6-10-.94.25-1.33.13-1.42-.21-.19-.72-.04-3.36,2-3.91.74-6.4,1.85-11.79,7.12-13.21,2.17-.58,4.88.38,5.29,1.91Z" fill="#2e3192"/><path d="M510.5,376.73c4.25-1.14,7.12.23,7.92,3.21,1.38,5.14-2.31,11.78-9.06,13.59-3.44.92-6.38-.02-7.2-3.08-.98-3.65,1.43-6.72,2.24-7.62-.1-.2-.15-.37-.19-.54-.5-1.87,2.52-4.55,6.3-5.56ZM509.6,390.19c2.29-.62,3.44-6.89,2.74-9.48-.28-1.06-.76-1.3-1.57-1.08-1.15.31-2.17,1.95-1.75,3.48.24.89.74,1.21.85,1.64.07.25-.11.62-.45.71-.51.14-1.23.01-1.95-.3-.11.94-.12,2.08.18,3.23.41,1.53,1.09,2.03,1.94,1.8Z" fill="#2e3192"/><path d="M530.43,371.48c1.32-.35,2.37.18,2.75,1.59.59,2.21-1.36,5.97-2.59,6.3-.43.11-.64-.01-.82-.33-.4-.62-.76-2.16-1.78-1.89-.47.13-1.11.8-1.51,2.18-.8,2.63-1.2,7.43-.83,8.79.17.64.15,1.05-.53,1.24-2,.54-4.9.77-5.31-.76-.82-3.06,1.45-10.23.54-13.63-.11-.42.19-.82,1-1.04,3.78-1.01,4.47,1.72,4.64,1.67.17-.05,1.57-3.34,4.46-4.11Z" fill="#2e3192"/><path d="M540.88,372.5c-.14-.51.14-2.36.56-3.02.32-.5.82-.68,1.42-.84.38-3.02.71-5.66.43-6.72-.1-.38.2-.78,1.01-1,1.79-.48,4.62.76,4.95,2,.16.6-.12,2.08-.36,4.1,1.78-.48,2.04-.73,2.5-.85.3-.08.47.06.55.35.42,1.57-.11,3.67-3.55,4.6-.49,2.59-1.45,9.54-1.02,11.16.17.64.1,1.07-.58,1.25-1.96.52-4.85.76-5.26-.77-.5-1.87,1.12-8.73.77-10.05-.43.11-1.27.34-1.42-.21Z" fill="#2e3192"/><path d="M559.35,363.63c4.25-1.14,7.12.23,7.92,3.21,1.38,5.14-2.31,11.78-9.06,13.59-3.44.92-6.38-.02-7.2-3.08-.98-3.65,1.43-6.72,2.24-7.62-.1-.2-.15-.37-.19-.54-.5-1.87,2.52-4.55,6.3-5.56ZM558.45,377.08c2.29-.62,3.44-6.89,2.74-9.48-.28-1.06-.76-1.3-1.57-1.08-1.15.31-2.17,1.95-1.75,3.48.24.89.74,1.21.85,1.64.07.25-.11.62-.45.71-.51.14-1.23.01-1.95-.3-.11.94-.12,2.08.18,3.23.41,1.53,1.09,2.03,1.94,1.8Z" fill="#2e3192"/><path d="M574.96,370.92c.14.51.46.7.93.57,2.46-.66,3.61-8.12,2.54-12.11-.11-.42.1-.8.7-.96,2.46-.66,5.35.43,5.72,1.79.35,1.32-1.61,6.72-.6,10.5.4,1.49.71,1.45.86,2,.08.3-.08.57-.5.68-3.44.92-5.4-1.1-5.7-1.02-.47.13-2.12,3.12-5.69,4.08-2,.54-3.88-.19-4.47-2.4-.82-3.06,1.33-8.79.42-12.18-.11-.42.23-.84,1.04-1.05,2.08-.56,4.67.75,5.13,2.5.59,2.21-.94,5.49-.37,7.62Z" fill="#2e3192"/><path d="M592.9,371.43c-3.74,1-6.27-.46-7.12-3.6-1.31-4.89,3.23-12.07,8.8-13.57,3.36-.9,5.22.1,5.72,1.97.67,2.51-1.87,5.1-4.25,5.74-.38.1-.74-.03-.81-.29-.1-.38.1-.66.41-1.52.3-.76.6-1.85.4-2.57-.14-.51-.46-.7-.97-.56-1.91.51-3.17,5-2.5,7.5.46,1.7,1.45,2.16,2.93,1.76,2.8-.75,3.47-3.03,4.11-3.2.3-.08.73.17.83.55.21.76-1.58,6.16-7.57,7.77Z" fill="#2e3192"/><path d="M617.56,362.68c.57,2.12,2.37,3.42,4.92,2.73,1.32-.35,1.79-.98,2.17-1.08.3-.08.57.08.65.37.23.85-1.65,4.36-6.24,5.59-3.53.95-7.04-.62-7.97-4.06-1.33-4.97,1.41-10.35.96-12.06-.1-.38-.44-.61-.86-.5-.81.22-2.46,1.34-3.13,3.8-.72,2.56-1.15,7.28-.76,8.72.17.64.15,1.05-.53,1.24-2,.54-4.9.77-5.31-.76-.75-2.8,3.02-21.67,2.16-24.9-.11-.42.19-.83,1-1.04,2.21-.59,4.68.79,5,1.98.49,1.83-1.08,9.22-.93,9.77.02.08.08.12.16.09.17-.05,2.57-2.83,5.29-3.56,2.12-.57,3.57.23,4.02,1.93.77,2.89-1.7,7.61-.59,11.73Z" fill="#2e3192"/><path d="M643.09,354.92c.39,1.44.72,1.49.86,2,.08.3-.08.57-.5.68-3.4.91-5.4-1.1-5.7-1.02-.55.15-2.46,3.21-5.95,4.15-2.12.57-4.08-.45-4.72-2.83-1.53-5.69,2.82-13.1,7.92-14.47,1.66-.44,2.91,0,3.04-.04.08-.02.16-.09.18-.18.65-4.73,1.21-9.43.81-10.92-.11-.43.19-.83,1-1.04,1.79-.48,4.64.81,4.95,2,.33,1.23-.42,6.4-1.22,11.58-.58,3.8-1.32,7.64-.66,10.11ZM632.87,355.52c.11.42.46.7.93.57,2.17-.58,4.04-8.19,3.74-9.34-.13-.47-.43-.57-.85-.46-2.59.7-4.55,6.46-3.81,9.22Z" fill="#2e3192"/><path d="M658.51,347.32c.34-.09.77.16.87.54.21.76-1.03,5.83-7.7,7.62-2.89.77-5.78-.32-6.61-3.42-1.41-5.27,2.9-12.12,8.72-13.68,3.27-.88,5,.48,5.45,2.14.88,3.27-3.75,7.43-7.38,9.18.49.82,1.31,1.15,2.54.82,2.89-.77,3.47-3.03,4.11-3.2ZM651.25,347.26c2.56-1.51,4.32-4.12,3.96-5.44-.14-.51-.49-.64-.92-.53-1.36.36-3.06,3.19-3.05,5.96Z" fill="#2e3192"/><path d="M661.38,337.12c-.11-.42.23-.84,1-1.04,2.12-.57,4.71.74,5.18,2.48.65,2.42-1.6,6.08-1.03,8.2.14.51.54.67.97.56,1.7-.46,3.58-7.02,2.59-10.72-.32-1.19-.59-1.16-.71-1.63-.11-.42.19-.82,1-1.04,3.06-.82,5.35.43,5.72,1.79,1.3,4.84-2.79,13.87-10.44,15.92-2.55.68-4.54-.29-5.06-2.24-.82-3.06,1.72-8.89.8-12.29Z" fill="#2e3192"/><path d="M682.69,345.98c.17.64.15,1.05-.53,1.24-2,.54-4.9.77-5.31-.76-.82-3.06,1.79-10.32.88-13.72-.11-.43.19-.83,1-1.04,2.55-.68,4.63.81,4.95,2,.66,2.46-1.85,9.06-.99,12.29ZM681.53,321.92c1.53-.41,2.94.26,3.36,1.83.58,2.17-.53,4.65-2.48,5.18-1.49.4-3.07-.23-3.48-1.75-.59-2.21.52-4.69,2.6-5.25Z" fill="#2e3192"/><path d="M691.86,344.88c-3.74,1-6.27-.46-7.12-3.6-1.31-4.89,3.23-12.07,8.8-13.57,3.36-.9,5.22.1,5.72,1.97.67,2.51-1.87,5.1-4.25,5.74-.38.1-.74-.03-.81-.29-.1-.38.1-.66.41-1.52.3-.76.6-1.85.4-2.57-.14-.51-.46-.7-.97-.56-1.91.51-3.17,5-2.5,7.5.46,1.7,1.45,2.16,2.93,1.76,2.8-.75,3.47-3.03,4.11-3.2.3-.08.73.17.83.55.21.76-1.58,6.16-7.57,7.77Z" fill="#2e3192"/><path d="M713.79,332.48c.34-.09.77.16.87.54.21.76-1.03,5.83-7.7,7.62-2.89.77-5.78-.32-6.61-3.42-1.41-5.27,2.9-12.12,8.72-13.68,3.27-.88,5,.48,5.45,2.14.88,3.27-3.75,7.43-7.38,9.18.49.82,1.31,1.15,2.54.82,2.89-.77,3.47-3.03,4.11-3.2ZM706.54,332.43c2.56-1.51,4.32-4.12,3.96-5.44-.14-.51-.49-.64-.92-.53-1.36.36-3.06,3.19-3.05,5.96Z" fill="#2e3192"/><path d="M726.06,325.46c-.47.13-.62-.11-.91-.67-.45-.84-1.24-1.72-2.21-1.46-.6.16-.88.64-.73,1.2.58,2.17,5.69,1.52,6.56,4.75.79,2.93-1.12,5.68-6.09,7.01-4.33,1.16-7.23-.47-7.54-1.62-.33-1.23,1.68-3.77,3.12-4.16.59-.16.83.05,1.01.37.69,1.37,1.94,2.12,2.87,1.87.51-.14.8-.58.68-1.05-.73-2.72-6.02-1.71-6.87-4.9-.76-2.85,2.17-5.68,6.5-6.85,3.48-.94,5.94.23,6.34,1.72.3,1.1-1.66,3.5-2.72,3.78Z" fill="#2e3192"/><path d="M202.54,436.04c.17.64.15,1.05-.53,1.24-2,.54-4.9.77-5.31-.76-.82-3.06,1.79-10.32.88-13.72-.11-.43.19-.83,1-1.04,2.55-.68,4.63.81,4.95,2,.66,2.46-1.85,9.06-.99,12.29ZM201.37,411.99c1.53-.41,2.94.26,3.36,1.83.58,2.17-.53,4.65-2.48,5.18-1.49.4-3.07-.23-3.48-1.75-.59-2.21.52-4.69,2.6-5.25Z" fill="#2e3192"/><path d="M213.6,421.91c-.64.17-1.49.72-2.21,2.96-.86,2.74-1.77,7.31-1.28,9.14.17.64.15,1.05-.53,1.24-2,.54-4.9.77-5.31-.76-.82-3.06,1.41-10.22.49-13.62-.11-.43.19-.83,1-1.04,3.78-1.01,4.78,2.04,4.95,2,.17-.05,2.1-3.89,6.35-5.03,1.87-.5,3.56.18,3.98,1.76.78,2.89-1.3,8.05-.6,10.68.38,1.4.7,1.41.83,1.92.1.38-.23,1.02-1.33,1.31-2.63.71-4.73.86-5.3-1.26-.62-2.29.88-6.57.42-8.27-.23-.85-.74-1.21-1.46-1.02Z" fill="#2e3192"/><path d="M221.73,419.37c-.14-.51.14-2.36.56-3.02.32-.5.82-.68,1.42-.84.38-3.02.71-5.66.43-6.72-.1-.38.2-.78,1.01-1,1.79-.48,4.62.76,4.95,2,.16.6-.12,2.08-.36,4.1,1.78-.48,2.04-.73,2.5-.85.3-.08.47.06.55.35.42,1.57-.11,3.67-3.55,4.6-.49,2.59-1.45,9.54-1.02,11.16.17.64.1,1.07-.58,1.25-1.96.52-4.85.76-5.26-.77-.5-1.87,1.12-8.73.77-10.05-.43.11-1.27.34-1.42-.21Z" fill="#2e3192"/><path d="M245.46,419.38c.34-.09.77.16.87.54.21.76-1.03,5.83-7.7,7.62-2.89.77-5.78-.32-6.61-3.42-1.41-5.27,2.9-12.12,8.72-13.68,3.27-.88,5,.48,5.45,2.14.88,3.27-3.75,7.43-7.38,9.18.49.82,1.31,1.15,2.54.82,2.89-.77,3.47-3.03,4.11-3.2ZM238.2,419.32c2.56-1.51,4.32-4.12,3.96-5.44-.14-.51-.49-.64-.92-.53-1.36.36-3.06,3.19-3.05,5.96Z" fill="#2e3192"/><path d="M258.09,405.79c1.32-.35,2.37.18,2.75,1.59.59,2.21-1.36,5.97-2.59,6.3-.43.11-.64-.01-.82-.33-.4-.62-.76-2.16-1.78-1.89-.47.13-1.11.8-1.51,2.18-.8,2.63-1.2,7.43-.83,8.79.17.64.15,1.05-.53,1.24-2,.54-4.9.77-5.31-.76-.82-3.06,1.45-10.23.54-13.63-.11-.42.19-.82,1-1.04,3.78-1.01,4.47,1.72,4.64,1.67.17-.05,1.57-3.34,4.46-4.11Z" fill="#2e3192"/><path d="M276.99,417.16c-3.44.92-5.44-1.09-5.74-1.01-.51.14-2.04,3.1-5.91,4.13-2.17.58-3.91-.5-4.55-2.88-1.48-5.52,2.52-13.02,9.45-14.88,3.65-.98,6.86.44,7.12,1.42.22.81-2.08,5.48-.68,10.71.34,1.27.67,1.32.81,1.83.08.3-.08.57-.5.68ZM266.68,414.73c.11.43.46.7.97.56,2.25-.6,3.92-8.48,3.67-9.41-.1-.38-.32-.51-.66-.42-2.59.7-4.72,6.51-3.98,9.27Z" fill="#2e3192"/><path d="M285.29,415.21c-3.74,1-6.27-.46-7.12-3.6-1.31-4.89,3.23-12.07,8.8-13.57,3.36-.9,5.22.1,5.72,1.97.67,2.51-1.87,5.1-4.25,5.74-.38.1-.74-.03-.81-.29-.1-.38.1-.66.41-1.52.3-.76.6-1.85.4-2.57-.14-.51-.46-.7-.97-.56-1.91.51-3.17,5-2.5,7.5.46,1.7,1.45,2.16,2.93,1.76,2.8-.75,3.47-3.03,4.11-3.2.3-.08.73.17.83.55.21.76-1.58,6.16-7.57,7.77Z" fill="#2e3192"/><path d="M293.66,400.07c-.14-.51.14-2.36.56-3.02.32-.5.82-.68,1.42-.84.38-3.02.71-5.66.43-6.72-.1-.38.2-.78,1.01-1,1.79-.48,4.62.76,4.95,2,.16.6-.12,2.08-.36,4.1,1.78-.48,2.04-.73,2.5-.85.3-.08.47.06.55.35.42,1.57-.11,3.67-3.55,4.6-.49,2.59-1.45,9.54-1.02,11.16.17.64.1,1.07-.58,1.25-1.96.52-4.85.76-5.26-.77-.5-1.87,1.12-8.73.77-10.05-.43.11-1.27.34-1.42-.21Z" fill="#2e3192"/><path d="M309.96,407.22c.17.64.15,1.05-.53,1.24-2,.54-4.9.77-5.31-.76-.82-3.06,1.79-10.32.88-13.72-.11-.43.19-.83,1-1.04,2.55-.68,4.63.81,4.95,2,.66,2.46-1.85,9.06-.99,12.29ZM308.79,383.16c1.53-.41,2.94.26,3.36,1.83.58,2.17-.53,4.65-2.48,5.18-1.49.4-3.07-.23-3.48-1.75-.59-2.21.52-4.69,2.6-5.25Z" fill="#2e3192"/><path d="M313.12,391.8c-.11-.42.23-.84,1-1.04,2.12-.57,4.71.74,5.18,2.48.65,2.42-1.6,6.08-1.03,8.2.14.51.54.67.97.56,1.7-.46,3.58-7.02,2.59-10.72-.32-1.19-.59-1.16-.71-1.63-.11-.42.19-.82,1-1.04,3.06-.82,5.35.43,5.72,1.79,1.3,4.84-2.79,13.87-10.44,15.92-2.55.68-4.54-.29-5.06-2.24-.82-3.06,1.72-8.89.8-12.29Z" fill="#2e3192"/><path d="M341.98,393.49c.34-.09.77.16.87.54.21.76-1.03,5.83-7.7,7.62-2.89.77-5.78-.32-6.61-3.42-1.41-5.27,2.9-12.12,8.72-13.68,3.27-.88,5,.48,5.45,2.14.88,3.27-3.75,7.43-7.38,9.18.49.82,1.31,1.15,2.54.82,2.89-.77,3.47-3.03,4.11-3.2ZM334.72,393.43c2.56-1.51,4.32-4.12,3.96-5.44-.14-.51-.49-.64-.92-.53-1.36.36-3.06,3.19-3.05,5.96Z" fill="#2e3192"/><path d="M361.94,384.39c-.47.13-.62-.11-.91-.67-.45-.84-1.24-1.72-2.21-1.46-.6.16-.88.64-.73,1.2.58,2.17,5.69,1.52,6.56,4.75.79,2.93-1.12,5.68-6.09,7.01-4.33,1.16-7.23-.47-7.54-1.62-.33-1.23,1.68-3.77,3.12-4.16.59-.16.83.05,1.01.37.69,1.36,1.94,2.12,2.87,1.87.51-.14.8-.58.68-1.05-.73-2.72-6.02-1.71-6.87-4.9-.76-2.85,2.17-5.68,6.5-6.85,3.48-.94,5.94.23,6.34,1.72.3,1.1-1.66,3.5-2.72,3.78Z" fill="#2e3192"/><path d="M377.12,373.85c2.46-.66,4.2.38,4.95,3.18,1.36,5.06-1.27,12.41-6.58,13.84-1.78.48-3.41-.13-3.53-.1-.08.02-.12.08-.16.27-.43,2.12-1.02,6.74-.36,9.21.17.64.13,1.01-.54,1.19-2,.54-4.97-.35-5.39-1.92-.88-3.27,2.16-18.12,1.1-22.07-.11-.43.23-.84,1.04-1.05,3.53-.95,4.51,1.71,4.72,1.65.17-.05,1.57-3.34,4.75-4.19ZM376.34,378.57c-.15-.55-.61-.75-.99-.64-1.79.48-3.69,7.14-3.18,9.05.1.38.53.63.92.53,2.29-.62,3.97-6.26,3.25-8.94Z" fill="#2e3192"/><path d="M397.01,378.72c.34-.09.77.16.87.54.21.76-1.03,5.83-7.7,7.62-2.89.77-5.78-.32-6.61-3.42-1.41-5.27,2.9-12.12,8.72-13.68,3.27-.88,5,.48,5.45,2.14.88,3.27-3.75,7.43-7.38,9.18.49.82,1.31,1.15,2.54.82,2.89-.77,3.47-3.03,4.11-3.2ZM389.75,378.66c2.56-1.51,4.32-4.12,3.96-5.44-.14-.51-.49-.64-.92-.53-1.36.36-3.06,3.19-3.05,5.96Z" fill="#2e3192"/><path d="M405.87,382.86c-3.74,1-6.27-.46-7.12-3.6-1.31-4.89,3.23-12.07,8.8-13.57,3.36-.9,5.22.1,5.72,1.97.67,2.51-1.87,5.1-4.25,5.74-.38.1-.74-.03-.81-.29-.1-.38.1-.66.41-1.52.3-.76.6-1.85.4-2.57-.14-.51-.46-.7-.97-.56-1.91.51-3.17,5-2.5,7.5.46,1.7,1.45,2.16,2.93,1.76,2.8-.75,3.47-3.03,4.11-3.2.3-.08.73.17.83.55.21.76-1.58,6.16-7.57,7.77Z" fill="#2e3192"/><path d="M414.22,367.72c-.14-.51.14-2.36.56-3.02.32-.5.82-.68,1.42-.84.38-3.02.71-5.66.43-6.72-.1-.38.2-.78,1.01-1,1.79-.48,4.62.76,4.95,2,.16.6-.12,2.08-.36,4.1,1.78-.48,2.04-.73,2.5-.85.3-.08.47.06.55.35.42,1.57-.11,3.67-3.55,4.6-.49,2.59-1.45,9.54-1.02,11.16.17.64.1,1.07-.58,1.25-1.96.52-4.85.76-5.26-.77-.5-1.87,1.12-8.73.77-10.05-.43.11-1.27.34-1.42-.21Z" fill="#2e3192"/><path d="M435.49,358.19c1.32-.35,2.37.18,2.75,1.59.59,2.21-1.36,5.97-2.59,6.3-.43.11-.64-.01-.82-.33-.4-.62-.76-2.16-1.78-1.89-.47.13-1.11.8-1.51,2.18-.8,2.63-1.2,7.43-.83,8.79.17.64.15,1.05-.53,1.24-2,.54-4.9.77-5.31-.76-.82-3.06,1.45-10.23.54-13.63-.11-.42.19-.82,1-1.04,3.78-1.01,4.47,1.72,4.64,1.67.17-.05,1.57-3.34,4.46-4.11Z" fill="#2e3192"/><path d="M446.29,355.2c4.25-1.14,7.12.23,7.92,3.21,1.38,5.14-2.31,11.78-9.06,13.59-3.44.92-6.38-.02-7.2-3.08-.98-3.65,1.43-6.72,2.24-7.62-.1-.2-.15-.37-.19-.54-.5-1.87,2.52-4.55,6.3-5.56ZM445.39,368.65c2.29-.62,3.44-6.89,2.74-9.48-.29-1.06-.76-1.3-1.57-1.08-1.15.31-2.17,1.95-1.75,3.48.24.89.74,1.21.85,1.64.07.25-.11.62-.45.71-.51.14-1.23.01-1.95-.3-.11.94-.12,2.08.18,3.23.41,1.53,1.09,2.03,1.94,1.8Z" fill="#2e3192"/><path d="M465.61,364.41c-.02-.08-.11-.06-.15-.05-.3.08-1.82,2.72-5.52,3.71-2.17.58-3.91-.5-4.55-2.88-1.48-5.52,2.52-13.02,9.45-14.88,3.65-.98,6.82.45,7.08,1.43s-1.24,3.52-1.05,9.16c.26,7.58.8,18.78-7.44,20.99-5.31,1.42-9.1-2.16-9.47-3.56-.1-.38.13-.72.47-.81.59-.16,1.37.68,3.96-.01,6.29-1.69,7.03-8.76,7.23-12.78.02-.1.04-.19,0-.32ZM461.28,362.52c.11.43.46.7.97.56,2.25-.6,3.92-8.48,3.67-9.41-.1-.38-.32-.51-.66-.42-2.59.7-4.72,6.51-3.98,9.27Z" fill="#2e3192"/><path d="M483.61,345.28c1.32-.35,2.37.18,2.75,1.59.59,2.21-1.36,5.97-2.59,6.3-.43.11-.64-.01-.82-.33-.4-.62-.76-2.16-1.78-1.89-.47.13-1.11.8-1.51,2.18-.8,2.63-1.2,7.43-.83,8.79.17.64.15,1.05-.53,1.24-2,.54-4.9.77-5.31-.76-.82-3.06,1.45-10.23.54-13.63-.11-.42.19-.82,1-1.04,3.78-1.01,4.47,1.72,4.64,1.67.17-.05,1.57-3.34,4.46-4.11Z" fill="#2e3192"/><path d="M502.51,356.65c-3.44.92-5.44-1.09-5.74-1.01-.51.14-2.04,3.1-5.91,4.13-2.17.58-3.91-.5-4.55-2.88-1.48-5.52,2.52-13.02,9.45-14.88,3.65-.98,6.86.44,7.12,1.42.22.81-2.08,5.48-.68,10.71.34,1.27.67,1.32.81,1.83.08.3-.08.57-.5.68ZM492.2,354.22c.11.43.46.7.97.56,2.25-.6,3.92-8.48,3.67-9.41-.1-.38-.32-.51-.66-.42-2.59.7-4.72,6.51-3.98,9.27Z" fill="#2e3192"/><path d="M528.81,347.73c.57,2.12,2.33,3.43,4.92,2.73,1.32-.35,1.79-.98,2.17-1.08.3-.08.57.08.65.37.23.85-1.7,4.37-6.24,5.59-3.53.95-7.04-.62-7.97-4.06-1.33-4.97,1.52-10.11,1.07-11.81-.1-.38-.38-.58-.85-.46-.64.17-1.89,1.1-2.61,3.34-.87,2.69-1.38,6.93-.89,8.76.17.64.15,1.05-.53,1.24-2,.54-4.68.71-5.09-.82-.65-2.42.85-8.2.5-9.52-.1-.38-.47-.56-.89-.44-.64.17-1.24.65-1.96,2.89-.86,2.74-1.77,7.31-1.28,9.14.17.64.15,1.05-.53,1.24-2,.54-4.9.77-5.31-.76-.82-3.06,1.41-10.22.49-13.62-.11-.43.19-.83,1-1.04,3.78-1.01,4.68,1.66,4.85,1.61.21-.06,1.69-3.37,4.92-4.24,3.4-.91,4.72,1.65,4.89,1.6.17-.05,1.99-3.45,5.26-4.33,2.12-.57,3.53.24,3.98,1.94.77,2.89-1.65,7.6-.55,11.72Z" fill="#2e3192"/><path d="M548.75,327.8c1.32-.35,2.37.18,2.75,1.59.59,2.21-1.36,5.97-2.59,6.3-.43.11-.64-.01-.82-.33-.4-.62-.76-2.16-1.78-1.89-.47.13-1.11.8-1.51,2.18-.8,2.63-1.2,7.43-.83,8.79.17.64.15,1.05-.53,1.24-2,.54-4.9.77-5.31-.76-.82-3.06,1.45-10.23.54-13.63-.11-.42.19-.82,1-1.04,3.78-1.01,4.47,1.72,4.64,1.67.17-.05,1.57-3.34,4.46-4.11Z" fill="#2e3192"/><path d="M564.81,333.7c.34-.09.77.16.87.54.21.76-1.03,5.83-7.7,7.62-2.89.77-5.78-.32-6.61-3.42-1.41-5.27,2.9-12.12,8.72-13.68,3.27-.88,5,.48,5.45,2.14.88,3.27-3.75,7.43-7.38,9.18.49.82,1.31,1.15,2.54.82,2.89-.77,3.47-3.03,4.11-3.2ZM557.55,333.64c2.56-1.51,4.32-4.12,3.96-5.44-.14-.51-.49-.64-.92-.53-1.36.36-3.06,3.19-3.05,5.96Z" fill="#2e3192"/><path d="M575.44,324.83c-.64.17-1.49.72-2.21,2.96-.86,2.74-1.77,7.31-1.28,9.14.17.64.15,1.05-.53,1.24-2,.54-4.9.77-5.31-.76-.82-3.06,1.41-10.22.49-13.62-.11-.43.19-.83,1-1.04,3.78-1.01,4.78,2.04,4.95,2,.17-.05,2.1-3.89,6.35-5.03,1.87-.5,3.56.18,3.98,1.76.78,2.89-1.3,8.05-.6,10.68.38,1.4.7,1.41.83,1.92.1.38-.23,1.02-1.33,1.31-2.63.71-4.73.86-5.3-1.26-.62-2.29.88-6.57.42-8.27-.23-.85-.74-1.21-1.46-1.02Z" fill="#2e3192"/><path d="M599.82,327.77c.39,1.44.72,1.49.86,2,.08.3-.08.57-.5.68-3.4.91-5.4-1.1-5.7-1.02-.55.15-2.46,3.21-5.95,4.15-2.12.57-4.08-.45-4.72-2.83-1.53-5.69,2.82-13.1,7.92-14.47,1.66-.44,2.91,0,3.04-.04.08-.02.16-.09.18-.18.65-4.73,1.21-9.43.81-10.92-.11-.43.19-.83,1-1.04,1.79-.48,4.64.81,4.95,2,.33,1.23-.42,6.4-1.22,11.58-.58,3.8-1.32,7.64-.66,10.11ZM589.59,328.37c.11.42.46.7.93.57,2.17-.58,4.04-8.19,3.74-9.34-.13-.47-.43-.57-.85-.46-2.59.7-4.55,6.46-3.81,9.22Z" fill="#2e3192"/><path d="M615.27,320.16c.34-.09.77.16.87.54.21.76-1.03,5.83-7.7,7.62-2.89.77-5.78-.32-6.61-3.42-1.41-5.27,2.9-12.12,8.72-13.68,3.27-.88,5,.48,5.45,2.14.88,3.27-3.75,7.43-7.38,9.18.49.82,1.31,1.15,2.54.82,2.89-.77,3.47-3.03,4.11-3.2ZM608.01,320.1c2.56-1.51,4.32-4.12,3.96-5.44-.14-.51-.49-.64-.92-.53-1.36.36-3.06,3.19-3.05,5.96Z" fill="#2e3192"/><path d="M627.88,306.57c1.32-.35,2.37.18,2.75,1.59.59,2.21-1.36,5.97-2.59,6.3-.43.11-.64-.01-.82-.33-.4-.62-.76-2.16-1.78-1.89-.47.13-1.11.8-1.51,2.18-.8,2.63-1.2,7.43-.83,8.79.17.64.15,1.05-.53,1.24-2,.54-4.9.77-5.31-.76-.82-3.06,1.45-10.23.54-13.63-.11-.42.19-.82,1-1.04,3.78-1.01,4.47,1.72,4.64,1.67.17-.05,1.57-3.34,4.46-4.11Z" fill="#2e3192"/><path d="M643.95,312.46c.34-.09.77.16.87.54.21.76-1.03,5.83-7.7,7.62-2.89.77-5.78-.32-6.61-3.42-1.41-5.27,2.9-12.12,8.72-13.68,3.27-.88,5,.48,5.45,2.14.88,3.27-3.75,7.43-7.38,9.18.49.82,1.31,1.15,2.54.82,2.89-.77,3.47-3.03,4.11-3.2ZM636.69,312.41c2.56-1.51,4.32-4.12,3.96-5.44-.14-.51-.49-.64-.92-.53-1.36.36-3.06,3.19-3.05,5.96Z" fill="#2e3192"/><path d="M656.57,298.87c1.32-.35,2.37.18,2.75,1.59.59,2.21-1.36,5.97-2.59,6.3-.43.11-.64-.01-.82-.33-.4-.62-.76-2.16-1.78-1.89-.47.13-1.11.8-1.51,2.18-.8,2.63-1.2,7.43-.83,8.79.17.64.15,1.05-.53,1.24-2,.54-4.9.77-5.31-.76-.82-3.06,1.45-10.23.54-13.63-.11-.42.19-.82,1-1.04,3.78-1.01,4.47,1.72,4.64,1.67.17-.05,1.57-3.34,4.46-4.11Z" fill="#2e3192"/><path d="M683.82,308.01c-3.44.92-5.44-1.09-5.74-1.01-.51.14-2.04,3.1-5.91,4.13-2.17.58-3.91-.5-4.55-2.88-1.48-5.52,2.52-13.02,9.45-14.88,3.65-.98,6.86.44,7.12,1.42.22.81-2.08,5.48-.68,10.71.34,1.27.67,1.32.81,1.83.08.3-.08.57-.5.68ZM673.51,305.58c.11.43.46.7.97.56,2.25-.6,3.92-8.48,3.67-9.41-.1-.38-.32-.51-.66-.42-2.59.7-4.72,6.51-3.98,9.27Z" fill="#2e3192"/><path d="M693.87,293.05c-.64.17-1.49.72-2.21,2.96-.86,2.74-1.77,7.31-1.28,9.14.17.64.15,1.05-.53,1.24-2,.54-4.9.77-5.31-.76-.82-3.06,1.41-10.22.49-13.62-.11-.43.19-.83,1-1.04,3.78-1.01,4.78,2.04,4.95,2,.17-.05,2.1-3.89,6.35-5.03,1.87-.5,3.56.18,3.98,1.76.77,2.89-1.3,8.05-.6,10.68.38,1.4.7,1.41.83,1.92.1.38-.23,1.02-1.33,1.31-2.63.71-4.73.86-5.3-1.26-.62-2.29.88-6.57.42-8.27-.23-.85-.74-1.21-1.46-1.02Z" fill="#2e3192"/><path d="M718.26,295.99c.39,1.44.72,1.49.86,2,.08.3-.08.57-.5.68-3.4.91-5.4-1.1-5.7-1.02-.55.15-2.46,3.21-5.95,4.15-2.12.57-4.08-.45-4.72-2.83-1.53-5.69,2.82-13.1,7.92-14.47,1.66-.44,2.91,0,3.04-.04.08-.02.16-.09.18-.18.64-4.73,1.21-9.43.81-10.92-.11-.43.19-.83,1-1.04,1.79-.48,4.63.81,4.95,2,.33,1.23-.42,6.4-1.22,11.58-.58,3.8-1.32,7.64-.66,10.11ZM708.04,296.59c.11.42.46.7.93.57,2.17-.58,4.04-8.19,3.74-9.34-.12-.47-.43-.57-.85-.46-2.59.7-4.55,6.46-3.81,9.22Z" fill="#2e3192"/><path d="M744.51,291.72c-3.44.92-5.44-1.09-5.74-1.01-.51.14-2.04,3.1-5.91,4.13-2.17.58-3.92-.5-4.55-2.88-1.48-5.52,2.52-13.02,9.45-14.88,3.65-.98,6.86.44,7.12,1.42.22.81-2.08,5.48-.68,10.71.34,1.27.67,1.32.81,1.83.08.3-.08.57-.5.68ZM734.2,289.29c.11.43.46.7.97.56,2.25-.6,3.92-8.48,3.67-9.41-.1-.38-.32-.51-.66-.42-2.59.7-4.72,6.51-3.98,9.27Z" fill="#2e3192"/><path d="M752.37,284.56c.14.51.46.7.93.57,2.46-.66,3.61-8.12,2.54-12.11-.11-.42.1-.8.7-.96,2.46-.66,5.35.43,5.72,1.79.35,1.32-1.61,6.72-.6,10.5.4,1.49.71,1.45.86,2,.08.3-.08.57-.5.68-3.44.92-5.4-1.1-5.7-1.02-.47.12-2.12,3.12-5.69,4.08-2,.54-3.88-.19-4.47-2.4-.82-3.06,1.33-8.79.42-12.18-.11-.42.23-.84,1.04-1.05,2.08-.56,4.67.75,5.13,2.5.59,2.21-.94,5.49-.37,7.62Z" fill="#2e3192"/><path d="M779.49,279.56c.39,1.44.72,1.49.86,2,.08.3-.08.57-.5.68-3.4.91-5.4-1.1-5.7-1.02-.55.15-2.46,3.21-5.95,4.15-2.12.57-4.08-.45-4.72-2.83-1.53-5.69,2.82-13.1,7.92-14.47,1.66-.44,2.91,0,3.04-.04.08-.02.16-.09.18-.18.64-4.73,1.21-9.43.81-10.92-.11-.43.19-.83,1-1.04,1.79-.48,4.63.81,4.95,2,.33,1.23-.42,6.4-1.22,11.58-.58,3.8-1.32,7.64-.66,10.11ZM769.27,280.16c.11.42.46.7.93.57,2.17-.58,4.04-8.19,3.74-9.34-.12-.47-.43-.57-.85-.46-2.59.7-4.55,6.46-3.81,9.22Z" fill="#2e3192"/><path d="M787.66,279.05c.17.64.15,1.05-.53,1.24-2,.54-4.9.77-5.31-.76-.82-3.06,1.79-10.32.88-13.72-.11-.43.19-.83,1-1.04,2.55-.68,4.64.81,4.95,2,.66,2.46-1.85,9.06-.99,12.29ZM786.49,254.99c1.53-.41,2.94.26,3.36,1.83.58,2.17-.53,4.65-2.48,5.18-1.49.4-3.07-.23-3.48-1.75-.59-2.21.52-4.69,2.6-5.25Z" fill="#2e3192"/><path d="M798.09,260.81c4.25-1.14,7.12.23,7.92,3.21,1.38,5.14-2.31,11.78-9.06,13.59-3.44.92-6.38-.02-7.2-3.08-.98-3.65,1.43-6.72,2.24-7.62-.1-.2-.15-.37-.19-.54-.5-1.87,2.52-4.55,6.3-5.56ZM797.19,274.26c2.29-.62,3.44-6.89,2.74-9.48-.29-1.06-.76-1.3-1.57-1.08-1.15.31-2.17,1.95-1.75,3.48.24.89.74,1.21.85,1.64.07.25-.11.62-.45.71-.51.14-1.23.01-1.95-.3-.11.94-.12,2.08.18,3.23.41,1.53,1.09,2.03,1.94,1.8Z" fill="#2e3192"/><path d="M826.25,253.35c2.46-.66,4.2.38,4.95,3.18,1.36,5.06-1.27,12.41-6.58,13.84-1.78.48-3.41-.13-3.53-.1-.08.02-.12.08-.16.27-.43,2.12-1.02,6.74-.36,9.21.17.64.13,1.01-.54,1.19-2,.54-4.97-.35-5.39-1.92-.88-3.27,2.16-18.12,1.1-22.07-.11-.43.23-.84,1.04-1.05,3.53-.95,4.51,1.71,4.72,1.65.17-.05,1.57-3.34,4.75-4.19ZM825.46,258.07c-.15-.55-.61-.75-.99-.64-1.78.48-3.69,7.14-3.17,9.05.1.38.53.63.92.53,2.29-.62,3.97-6.26,3.25-8.94Z" fill="#2e3192"/><path d="M838.63,265.37c.17.64.15,1.05-.53,1.24-2,.54-4.9.77-5.31-.76-.82-3.06,3.07-21.5,2.16-24.9-.11-.42.19-.83,1-1.04,1.79-.48,4.68.79,5,1.98.67,2.51-3.18,20.26-2.31,23.49Z" fill="#2e3192"/><path d="M857.27,261.47c-3.44.92-5.44-1.09-5.74-1.01-.51.14-2.04,3.1-5.91,4.13-2.17.58-3.92-.5-4.55-2.88-1.48-5.52,2.52-13.02,9.45-14.88,3.65-.98,6.86.44,7.12,1.42.22.81-2.08,5.48-.68,10.71.34,1.27.67,1.32.81,1.83.08.3-.08.57-.5.68ZM846.96,259.04c.11.43.46.7.97.56,2.25-.6,3.92-8.48,3.67-9.41-.1-.38-.32-.51-.66-.42-2.59.7-4.72,6.51-3.98,9.27Z" fill="#2e3192"/><path d="M866.15,254.85c.55-.15,2-1.22,2.46-2.71,1.27-4.08,1.1-6.95.41-9.5-.11-.42.1-.8.61-.94,3.1-.83,5.4.42,5.76,1.78.23.85-.42,5.22-.68,9.7-.44,7.54.1,18.38-7.72,20.47-5.31,1.42-9.11-2.2-9.49-3.61-.1-.38.13-.72.47-.81.59-.16,1.37.68,3.96-.01,6.29-1.69,6.91-9.05,7.17-13.17-.03-.13-.01-.22-.04-.31-.01-.04-.07-.07-.11-.06-.47.12-1.89,3.15-5.84,4.21-2,.54-3.65-.02-4.21-2.11-.83-3.1,1.62-9.23.71-12.63-.11-.42.23-.84,1-1.04,2.12-.57,4.71.74,5.18,2.48.65,2.42-1.2,5.56-.63,7.68.14.51.5.69.97.56Z" fill="#2e3192"/><path d="M889.95,246.46c.34-.09.77.16.87.54.21.76-1.03,5.83-7.7,7.62-2.89.77-5.78-.32-6.61-3.42-1.41-5.27,2.9-12.12,8.72-13.68,3.27-.88,5,.48,5.45,2.14.88,3.27-3.75,7.43-7.38,9.18.49.82,1.31,1.15,2.54.82,2.89-.77,3.47-3.03,4.11-3.2ZM882.69,246.4c2.56-1.51,4.32-4.12,3.96-5.44-.14-.51-.49-.64-.92-.53-1.36.36-3.06,3.19-3.05,5.96Z" fill="#2e3192"/><path d="M902.59,232.86c1.32-.35,2.37.18,2.75,1.59.59,2.21-1.36,5.97-2.59,6.3-.42.11-.64-.01-.82-.33-.39-.62-.76-2.16-1.78-1.89-.47.13-1.11.8-1.51,2.18-.8,2.63-1.2,7.43-.83,8.79.17.64.15,1.05-.53,1.24-2,.54-4.9.77-5.31-.76-.82-3.06,1.45-10.23.54-13.63-.11-.42.19-.82,1-1.04,3.78-1.01,4.47,1.72,4.64,1.67.17-.05,1.56-3.34,4.46-4.11Z" fill="#2e3192"/><path d="M355.29,415.84c4.25-1.14,7.12.23,7.92,3.21,1.38,5.14-2.31,11.78-9.06,13.59-3.44.92-6.38-.02-7.2-3.08-.98-3.65,1.43-6.72,2.24-7.62-.1-.2-.15-.37-.19-.54-.5-1.87,2.52-4.55,6.3-5.56ZM354.39,429.29c2.29-.62,3.44-6.89,2.74-9.48-.28-1.06-.76-1.3-1.57-1.08-1.15.31-2.17,1.95-1.75,3.48.24.89.74,1.21.85,1.64.07.25-.11.62-.45.71-.51.14-1.23.01-1.95-.3-.11.94-.12,2.08.18,3.23.41,1.53,1.09,2.03,1.94,1.8Z" fill="#fff"/><path d="M375.6,410.48c2.46-.66,4.2.38,4.95,3.18,1.36,5.06-1.27,12.41-6.58,13.84-1.78.48-3.41-.13-3.53-.1-.08.02-.12.08-.16.27-.43,2.12-1.02,6.74-.36,9.21.17.64.13,1.01-.54,1.19-2,.54-4.97-.35-5.39-1.92-.88-3.27,2.16-18.12,1.1-22.07-.11-.43.23-.84,1.04-1.05,3.53-.95,4.51,1.71,4.72,1.65.17-.05,1.57-3.34,4.75-4.19ZM374.82,415.2c-.15-.55-.61-.75-.99-.64-1.79.48-3.69,7.14-3.18,9.05.1.38.53.63.92.53,2.29-.62,3.97-6.26,3.25-8.94Z" fill="#fff"/><path d="M381.78,412.65c-.14-.51.14-2.36.56-3.02.32-.5.82-.68,1.42-.84.38-3.02.71-5.66.43-6.72-.1-.38.2-.78,1.01-1,1.79-.48,4.62.76,4.95,2,.16.6-.12,2.08-.36,4.1,1.78-.48,2.04-.73,2.5-.85.3-.08.47.06.55.35.42,1.57-.11,3.67-3.55,4.6-.49,2.59-1.45,9.54-1.02,11.16.17.64.1,1.07-.58,1.25-1.96.52-4.85.76-5.26-.77-.5-1.87,1.12-8.73.77-10.05-.43.11-1.27.34-1.42-.21Z" fill="#fff"/><path d="M398.09,419.8c.17.64.15,1.05-.53,1.24-2,.54-4.9.77-5.31-.76-.82-3.06,1.79-10.32.88-13.72-.11-.43.19-.83,1-1.04,2.55-.68,4.63.81,4.95,2,.66,2.46-1.85,9.06-.99,12.29ZM396.92,395.74c1.53-.41,2.94.26,3.36,1.83.58,2.17-.53,4.65-2.48,5.18-1.49.4-3.07-.23-3.48-1.75-.59-2.21.52-4.69,2.6-5.25Z" fill="#fff"/><path d="M400.33,404.62c-.11-.43.19-.83,1-1.04,3.57-.96,4.68,1.66,4.85,1.61.21-.06,1.69-3.37,4.92-4.24,3.4-.91,4.72,1.65,4.89,1.6.17-.05,1.99-3.45,5.26-4.33,2.12-.57,3.53.24,3.98,1.94.77,2.89-1.35,7.88-.64,10.51.38,1.4.82,1.37.96,1.88.1.38-.23,1.02-1.33,1.31-2.63.71-4.86.89-5.43-1.23-.62-2.29.95-7.32.5-9.02-.1-.38-.38-.58-.85-.46-.64.17-1.89,1.1-2.61,3.34-.87,2.69-1.38,6.93-.89,8.76.17.64.15,1.05-.53,1.24-2,.54-4.68.71-5.09-.82-.65-2.42.85-8.2.5-9.52-.1-.38-.47-.56-.89-.44-.64.17-1.24.65-1.96,2.89-.86,2.74-1.77,7.31-1.28,9.14.17.64.15,1.05-.53,1.24-2,.54-4.9.77-5.31-.76-.82-3.06,1.41-10.22.49-13.62Z" fill="#fff"/><path d="M431.97,410.71c.17.64.15,1.05-.53,1.24-2,.54-4.9.77-5.31-.76-.82-3.06,1.79-10.32.88-13.72-.11-.43.19-.83,1-1.04,2.55-.68,4.63.81,4.95,2,.66,2.46-1.85,9.06-.99,12.29ZM430.81,386.65c1.53-.41,2.94.26,3.36,1.83.58,2.17-.53,4.65-2.48,5.18-1.49.4-3.07-.23-3.48-1.75-.59-2.21.52-4.69,2.6-5.25Z" fill="#fff"/><path d="M444.57,398.45c-.47.13-.62-.11-.91-.67-.45-.84-1.24-1.72-2.21-1.46-.6.16-.88.64-.73,1.2.58,2.17,5.69,1.52,6.56,4.75.79,2.93-1.12,5.68-6.09,7.01-4.33,1.16-7.23-.47-7.54-1.62-.33-1.23,1.68-3.77,3.12-4.16.59-.16.83.05,1.01.37.69,1.36,1.94,2.12,2.87,1.87.51-.14.8-.58.68-1.05-.73-2.72-6.02-1.71-6.87-4.9-.76-2.85,2.17-5.68,6.5-6.85,3.48-.94,5.94.23,6.34,1.72.3,1.1-1.66,3.5-2.72,3.78Z" fill="#fff"/><path d="M461.71,397.58c.34-.09.77.16.87.54.21.76-1.03,5.83-7.7,7.62-2.89.77-5.78-.32-6.61-3.42-1.41-5.27,2.9-12.12,8.72-13.68,3.27-.88,5,.48,5.45,2.14.88,3.27-3.75,7.43-7.38,9.18.49.82,1.31,1.15,2.54.82,2.89-.77,3.47-3.03,4.11-3.2ZM454.45,397.53c2.56-1.51,4.32-4.12,3.96-5.44-.14-.51-.49-.64-.92-.53-1.36.36-3.06,3.19-3.05,5.96Z" fill="#fff"/><path d="M479.61,396.24c.39,1.44.72,1.49.86,2,.08.3-.08.57-.5.68-3.4.91-5.4-1.1-5.7-1.02-.55.15-2.46,3.21-5.95,4.15-2.12.57-4.08-.45-4.72-2.83-1.53-5.69,2.82-13.1,7.92-14.47,1.66-.44,2.91,0,3.04-.04.08-.02.16-.09.18-.18.65-4.73,1.21-9.43.81-10.92-.11-.43.19-.83,1-1.04,1.79-.48,4.64.81,4.95,2,.33,1.23-.42,6.4-1.22,11.58-.58,3.8-1.32,7.64-.66,10.11ZM469.38,396.84c.11.42.46.7.93.57,2.17-.58,4.04-8.19,3.74-9.34-.13-.47-.43-.57-.85-.46-2.59.7-4.55,6.46-3.81,9.22Z" fill="#fff"/><path d="M503.29,368.71c.4,1.49-1,4.41-2.06,4.7-.68.18-1.31-2.84-2.46-2.53-1.06.29-1.73,6.8-1.78,7.45,0,0,1.85-.59,2.4-.73.3-.08.43.07.52.41.21.77-.02,3.65-3.21,4.51-.34.09-.34.27-.43.62-.65,3.86-1.06,9.3-.73,10.54.17.64.15,1.05-.53,1.24-2,.54-4.9.77-5.31-.76-.3-1.1.27-6.81.6-10-.94.25-1.33.13-1.42-.21-.19-.72-.04-3.36,2-3.91.74-6.4,1.85-11.79,7.12-13.21,2.17-.58,4.88.38,5.29,1.91Z" fill="#fff"/><path d="M508.5,374.73c4.25-1.14,7.12.23,7.92,3.21,1.38,5.14-2.31,11.78-9.06,13.59-3.44.92-6.38-.02-7.2-3.08-.98-3.65,1.43-6.72,2.24-7.62-.1-.2-.15-.37-.19-.54-.5-1.87,2.52-4.55,6.3-5.56ZM507.6,388.19c2.29-.62,3.44-6.89,2.74-9.48-.28-1.06-.76-1.3-1.57-1.08-1.15.31-2.17,1.95-1.75,3.48.24.89.74,1.21.85,1.64.07.25-.11.62-.45.71-.51.14-1.23.01-1.95-.3-.11.94-.12,2.08.18,3.23.41,1.53,1.09,2.03,1.94,1.8Z" fill="#fff"/><path d="M528.43,369.48c1.32-.35,2.37.18,2.75,1.59.59,2.21-1.36,5.97-2.59,6.3-.43.11-.64-.01-.82-.33-.4-.62-.76-2.16-1.78-1.89-.47.13-1.11.8-1.51,2.18-.8,2.63-1.2,7.43-.83,8.79.17.64.15,1.05-.53,1.24-2,.54-4.9.77-5.31-.76-.82-3.06,1.45-10.23.54-13.63-.11-.42.19-.82,1-1.04,3.78-1.01,4.47,1.72,4.64,1.67.17-.05,1.57-3.34,4.46-4.11Z" fill="#fff"/><path d="M538.88,370.5c-.14-.51.14-2.36.56-3.02.32-.5.82-.68,1.42-.84.38-3.02.71-5.66.43-6.72-.1-.38.2-.78,1.01-1,1.79-.48,4.62.76,4.95,2,.16.6-.12,2.08-.36,4.1,1.78-.48,2.04-.73,2.5-.85.3-.08.47.06.55.35.42,1.57-.11,3.67-3.55,4.6-.49,2.59-1.45,9.54-1.02,11.16.17.64.1,1.07-.58,1.25-1.96.52-4.85.76-5.26-.77-.5-1.87,1.12-8.73.77-10.05-.43.11-1.27.34-1.42-.21Z" fill="#fff"/><path d="M557.35,361.63c4.25-1.14,7.12.23,7.92,3.21,1.38,5.14-2.31,11.78-9.06,13.59-3.44.92-6.38-.02-7.2-3.08-.98-3.65,1.43-6.72,2.24-7.62-.1-.2-.15-.37-.19-.54-.5-1.87,2.52-4.55,6.3-5.56ZM556.45,375.08c2.29-.62,3.44-6.89,2.74-9.48-.28-1.06-.76-1.3-1.57-1.08-1.15.31-2.17,1.95-1.75,3.48.24.89.74,1.21.85,1.64.07.25-.11.62-.45.71-.51.14-1.23.01-1.95-.3-.11.94-.12,2.08.18,3.23.41,1.53,1.09,2.03,1.94,1.8Z" fill="#fff"/><path d="M572.96,368.92c.14.51.46.7.93.57,2.46-.66,3.61-8.12,2.54-12.11-.11-.42.1-.8.7-.96,2.46-.66,5.35.43,5.72,1.79.35,1.32-1.61,6.72-.6,10.5.4,1.49.71,1.45.86,2,.08.3-.08.57-.5.68-3.44.92-5.4-1.1-5.7-1.02-.47.13-2.12,3.12-5.69,4.08-2,.54-3.88-.19-4.47-2.4-.82-3.06,1.33-8.79.42-12.18-.11-.42.23-.84,1.04-1.05,2.08-.56,4.67.75,5.13,2.5.59,2.21-.94,5.49-.37,7.62Z" fill="#fff"/><path d="M590.9,369.43c-3.74,1-6.27-.46-7.12-3.6-1.31-4.89,3.23-12.07,8.8-13.57,3.36-.9,5.22.1,5.72,1.97.67,2.51-1.87,5.1-4.25,5.74-.38.1-.74-.03-.81-.29-.1-.38.1-.66.41-1.52.3-.76.6-1.85.4-2.57-.14-.51-.46-.7-.97-.56-1.91.51-3.17,5-2.5,7.5.46,1.7,1.45,2.16,2.93,1.76,2.8-.75,3.47-3.03,4.11-3.2.3-.08.73.17.83.55.21.76-1.58,6.16-7.57,7.77Z" fill="#fff"/><path d="M615.56,360.68c.57,2.12,2.37,3.42,4.92,2.73,1.32-.35,1.79-.98,2.17-1.08.3-.08.57.08.65.37.23.85-1.65,4.36-6.24,5.59-3.53.95-7.04-.62-7.97-4.06-1.33-4.97,1.41-10.35.96-12.06-.1-.38-.44-.61-.86-.5-.81.22-2.46,1.34-3.13,3.8-.72,2.56-1.15,7.28-.76,8.72.17.64.15,1.05-.53,1.24-2,.54-4.9.77-5.31-.76-.75-2.8,3.02-21.67,2.16-24.9-.11-.42.19-.83,1-1.04,2.21-.59,4.68.79,5,1.98.49,1.83-1.08,9.22-.93,9.77.02.08.08.12.16.09.17-.05,2.57-2.83,5.29-3.56,2.12-.57,3.57.23,4.02,1.93.77,2.89-1.7,7.61-.59,11.73Z" fill="#fff"/><path d="M641.09,352.92c.39,1.44.72,1.49.86,2,.08.3-.08.57-.5.68-3.4.91-5.4-1.1-5.7-1.02-.55.15-2.46,3.21-5.95,4.15-2.12.57-4.08-.45-4.72-2.83-1.53-5.69,2.82-13.1,7.92-14.47,1.66-.44,2.91,0,3.04-.04.08-.02.16-.09.18-.18.65-4.73,1.21-9.43.81-10.92-.11-.43.19-.83,1-1.04,1.79-.48,4.64.81,4.95,2,.33,1.23-.42,6.4-1.22,11.58-.58,3.8-1.32,7.64-.66,10.11ZM630.87,353.52c.11.42.46.7.93.57,2.17-.58,4.04-8.19,3.74-9.34-.13-.47-.43-.57-.85-.46-2.59.7-4.55,6.46-3.81,9.22Z" fill="#fff"/><path d="M656.51,345.32c.34-.09.77.16.87.54.21.76-1.03,5.83-7.7,7.62-2.89.77-5.78-.32-6.61-3.42-1.41-5.27,2.9-12.12,8.72-13.68,3.27-.88,5,.48,5.45,2.14.88,3.27-3.75,7.43-7.38,9.18.49.82,1.31,1.15,2.54.82,2.89-.77,3.47-3.03,4.11-3.2ZM649.25,345.26c2.56-1.51,4.32-4.12,3.96-5.44-.14-.51-.49-.64-.92-.53-1.36.36-3.06,3.19-3.05,5.96Z" fill="#fff"/><path d="M659.38,335.12c-.11-.42.23-.84,1-1.04,2.12-.57,4.71.74,5.18,2.48.65,2.42-1.6,6.08-1.03,8.2.14.51.54.67.97.56,1.7-.46,3.58-7.02,2.59-10.72-.32-1.19-.59-1.16-.71-1.63-.11-.42.19-.82,1-1.04,3.06-.82,5.35.43,5.72,1.79,1.3,4.84-2.79,13.87-10.44,15.92-2.55.68-4.54-.29-5.06-2.24-.82-3.06,1.72-8.89.8-12.29Z" fill="#fff"/><path d="M680.69,343.98c.17.64.15,1.05-.53,1.24-2,.54-4.9.77-5.31-.76-.82-3.06,1.79-10.32.88-13.72-.11-.43.19-.83,1-1.04,2.55-.68,4.63.81,4.95,2,.66,2.46-1.85,9.06-.99,12.29ZM679.53,319.92c1.53-.41,2.94.26,3.36,1.83.58,2.17-.53,4.65-2.48,5.18-1.49.4-3.07-.23-3.48-1.75-.59-2.21.52-4.69,2.6-5.25Z" fill="#fff"/><path d="M689.86,342.88c-3.74,1-6.27-.46-7.12-3.6-1.31-4.89,3.23-12.07,8.8-13.57,3.36-.9,5.22.1,5.72,1.97.67,2.51-1.87,5.1-4.25,5.74-.38.1-.74-.03-.81-.29-.1-.38.1-.66.41-1.52.3-.76.6-1.85.4-2.57-.14-.51-.46-.7-.97-.56-1.91.51-3.17,5-2.5,7.5.46,1.7,1.45,2.16,2.93,1.76,2.8-.75,3.47-3.03,4.11-3.2.3-.08.73.17.83.55.21.76-1.58,6.16-7.57,7.77Z" fill="#fff"/><path d="M711.79,330.48c.34-.09.77.16.87.54.21.76-1.03,5.83-7.7,7.62-2.89.77-5.78-.32-6.61-3.42-1.41-5.27,2.9-12.12,8.72-13.68,3.27-.88,5,.48,5.45,2.14.88,3.27-3.75,7.43-7.38,9.18.49.82,1.31,1.15,2.54.82,2.89-.77,3.47-3.03,4.11-3.2ZM704.54,330.43c2.56-1.51,4.32-4.12,3.96-5.44-.14-.51-.49-.64-.92-.53-1.36.36-3.06,3.19-3.05,5.96Z" fill="#fff"/><path d="M724.06,323.46c-.47.13-.62-.11-.91-.67-.45-.84-1.24-1.72-2.21-1.46-.6.16-.88.64-.73,1.2.58,2.17,5.69,1.52,6.56,4.75.79,2.93-1.12,5.68-6.09,7.01-4.33,1.16-7.23-.47-7.54-1.62-.33-1.23,1.68-3.77,3.12-4.16.59-.16.83.05,1.01.37.69,1.37,1.94,2.12,2.87,1.87.51-.14.8-.58.68-1.05-.73-2.72-6.02-1.71-6.87-4.9-.76-2.85,2.17-5.68,6.5-6.85,3.48-.94,5.94.23,6.34,1.72.3,1.1-1.66,3.5-2.72,3.78Z" fill="#fff"/><path d="M200.54,434.04c.17.64.15,1.05-.53,1.24-2,.54-4.9.77-5.31-.76-.82-3.06,1.79-10.32.88-13.72-.11-.43.19-.83,1-1.04,2.55-.68,4.63.81,4.95,2,.66,2.46-1.85,9.06-.99,12.29ZM199.37,409.99c1.53-.41,2.94.26,3.36,1.83.58,2.17-.53,4.65-2.48,5.18-1.49.4-3.07-.23-3.48-1.75-.59-2.21.52-4.69,2.6-5.25Z" fill="#fff"/><path d="M211.6,419.91c-.64.17-1.49.72-2.21,2.96-.86,2.74-1.77,7.31-1.28,9.14.17.64.15,1.05-.53,1.24-2,.54-4.9.77-5.31-.76-.82-3.06,1.41-10.22.49-13.62-.11-.43.19-.83,1-1.04,3.78-1.01,4.78,2.04,4.95,2,.17-.05,2.1-3.89,6.35-5.03,1.87-.5,3.56.18,3.98,1.76.78,2.89-1.3,8.05-.6,10.68.38,1.4.7,1.41.83,1.92.1.38-.23,1.02-1.33,1.31-2.63.71-4.73.86-5.3-1.26-.62-2.29.88-6.57.42-8.27-.23-.85-.74-1.21-1.46-1.02Z" fill="#fff"/><path d="M219.73,417.37c-.14-.51.14-2.36.56-3.02.32-.5.82-.68,1.42-.84.38-3.02.71-5.66.43-6.72-.1-.38.2-.78,1.01-1,1.79-.48,4.62.76,4.95,2,.16.6-.12,2.08-.36,4.1,1.78-.48,2.04-.73,2.5-.85.3-.08.47.06.55.35.42,1.57-.11,3.67-3.55,4.6-.49,2.59-1.45,9.54-1.02,11.16.17.64.1,1.07-.58,1.25-1.96.52-4.85.76-5.26-.77-.5-1.87,1.12-8.73.77-10.05-.43.11-1.27.34-1.42-.21Z" fill="#fff"/><path d="M243.46,417.38c.34-.09.77.16.87.54.21.76-1.03,5.83-7.7,7.62-2.89.77-5.78-.32-6.61-3.42-1.41-5.27,2.9-12.12,8.72-13.68,3.27-.88,5,.48,5.45,2.14.88,3.27-3.75,7.43-7.38,9.18.49.82,1.31,1.15,2.54.82,2.89-.77,3.47-3.03,4.11-3.2ZM236.2,417.32c2.56-1.51,4.32-4.12,3.96-5.44-.14-.51-.49-.64-.92-.53-1.36.36-3.06,3.19-3.05,5.96Z" fill="#fff"/><path d="M256.09,403.79c1.32-.35,2.37.18,2.75,1.59.59,2.21-1.36,5.97-2.59,6.3-.43.11-.64-.01-.82-.33-.4-.62-.76-2.16-1.78-1.89-.47.13-1.11.8-1.51,2.18-.8,2.63-1.2,7.43-.83,8.79.17.64.15,1.05-.53,1.24-2,.54-4.9.77-5.31-.76-.82-3.06,1.45-10.23.54-13.63-.11-.42.19-.82,1-1.04,3.78-1.01,4.47,1.72,4.64,1.67.17-.05,1.57-3.34,4.46-4.11Z" fill="#fff"/><path d="M274.99,415.16c-3.44.92-5.44-1.09-5.74-1.01-.51.14-2.04,3.1-5.91,4.13-2.17.58-3.91-.5-4.55-2.88-1.48-5.52,2.52-13.02,9.45-14.88,3.65-.98,6.86.44,7.12,1.42.22.81-2.08,5.48-.68,10.71.34,1.27.67,1.32.81,1.83.08.3-.08.57-.5.68ZM264.68,412.73c.11.43.46.7.97.56,2.25-.6,3.92-8.48,3.67-9.41-.1-.38-.32-.51-.66-.42-2.59.7-4.72,6.51-3.98,9.27Z" fill="#fff"/><path d="M283.29,413.21c-3.74,1-6.27-.46-7.12-3.6-1.31-4.89,3.23-12.07,8.8-13.57,3.36-.9,5.22.1,5.72,1.97.67,2.51-1.87,5.1-4.25,5.74-.38.1-.74-.03-.81-.29-.1-.38.1-.66.41-1.52.3-.76.6-1.85.4-2.57-.14-.51-.46-.7-.97-.56-1.91.51-3.17,5-2.5,7.5.46,1.7,1.45,2.16,2.93,1.76,2.8-.75,3.47-3.03,4.11-3.2.3-.08.73.17.83.55.21.76-1.58,6.16-7.57,7.77Z" fill="#fff"/><path d="M291.66,398.07c-.14-.51.14-2.36.56-3.02.32-.5.82-.68,1.42-.84.38-3.02.71-5.66.43-6.72-.1-.38.2-.78,1.01-1,1.79-.48,4.62.76,4.95,2,.16.6-.12,2.08-.36,4.1,1.78-.48,2.04-.73,2.5-.85.3-.08.47.06.55.35.42,1.57-.11,3.67-3.55,4.6-.49,2.59-1.45,9.54-1.02,11.16.17.64.1,1.07-.58,1.25-1.96.52-4.85.76-5.26-.77-.5-1.87,1.12-8.73.77-10.05-.43.11-1.27.34-1.42-.21Z" fill="#fff"/><path d="M307.96,405.22c.17.64.15,1.05-.53,1.24-2,.54-4.9.77-5.31-.76-.82-3.06,1.79-10.32.88-13.72-.11-.43.19-.83,1-1.04,2.55-.68,4.63.81,4.95,2,.66,2.46-1.85,9.06-.99,12.29ZM306.79,381.16c1.53-.41,2.94.26,3.36,1.83.58,2.17-.53,4.65-2.48,5.18-1.49.4-3.07-.23-3.48-1.75-.59-2.21.52-4.69,2.6-5.25Z" fill="#fff"/><path d="M311.12,389.8c-.11-.42.23-.84,1-1.04,2.12-.57,4.71.74,5.18,2.48.65,2.42-1.6,6.08-1.03,8.2.14.51.54.67.97.56,1.7-.46,3.58-7.02,2.59-10.72-.32-1.19-.59-1.16-.71-1.63-.11-.42.19-.82,1-1.04,3.06-.82,5.35.43,5.72,1.79,1.3,4.84-2.79,13.87-10.44,15.92-2.55.68-4.54-.29-5.06-2.24-.82-3.06,1.72-8.89.8-12.29Z" fill="#fff"/><path d="M339.98,391.49c.34-.09.77.16.87.54.21.76-1.03,5.83-7.7,7.62-2.89.77-5.78-.32-6.61-3.42-1.41-5.27,2.9-12.12,8.72-13.68,3.27-.88,5,.48,5.45,2.14.88,3.27-3.75,7.43-7.38,9.18.49.82,1.31,1.15,2.54.82,2.89-.77,3.47-3.03,4.11-3.2ZM332.72,391.43c2.56-1.51,4.32-4.12,3.96-5.44-.14-.51-.49-.64-.92-.53-1.36.36-3.06,3.19-3.05,5.96Z" fill="#fff"/><path d="M359.94,382.39c-.47.13-.62-.11-.91-.67-.45-.84-1.24-1.72-2.21-1.46-.6.16-.88.64-.73,1.2.58,2.17,5.69,1.52,6.56,4.75.79,2.93-1.12,5.68-6.09,7.01-4.33,1.16-7.23-.47-7.54-1.62-.33-1.23,1.68-3.77,3.12-4.16.59-.16.83.05,1.01.37.69,1.36,1.94,2.12,2.87,1.87.51-.14.8-.58.68-1.05-.73-2.72-6.02-1.71-6.87-4.9-.76-2.85,2.17-5.68,6.5-6.85,3.48-.94,5.94.23,6.34,1.72.3,1.1-1.66,3.5-2.72,3.78Z" fill="#fff"/><path d="M375.12,371.85c2.46-.66,4.2.38,4.95,3.18,1.36,5.06-1.27,12.41-6.58,13.84-1.78.48-3.41-.13-3.53-.1-.08.02-.12.08-.16.27-.43,2.12-1.02,6.74-.36,9.21.17.64.13,1.01-.54,1.19-2,.54-4.97-.35-5.39-1.92-.88-3.27,2.16-18.12,1.1-22.07-.11-.43.23-.84,1.04-1.05,3.53-.95,4.51,1.71,4.72,1.65.17-.05,1.57-3.34,4.75-4.19ZM374.34,376.57c-.15-.55-.61-.75-.99-.64-1.79.48-3.69,7.14-3.18,9.05.1.38.53.63.92.53,2.29-.62,3.97-6.26,3.25-8.94Z" fill="#fff"/><path d="M395.01,376.72c.34-.09.77.16.87.54.21.76-1.03,5.83-7.7,7.62-2.89.77-5.78-.32-6.61-3.42-1.41-5.27,2.9-12.12,8.72-13.68,3.27-.88,5,.48,5.45,2.14.88,3.27-3.75,7.43-7.38,9.18.49.82,1.31,1.15,2.54.82,2.89-.77,3.47-3.03,4.11-3.2ZM387.75,376.66c2.56-1.51,4.32-4.12,3.96-5.44-.14-.51-.49-.64-.92-.53-1.36.36-3.06,3.19-3.05,5.96Z" fill="#fff"/><path d="M403.87,380.86c-3.74,1-6.27-.46-7.12-3.6-1.31-4.89,3.23-12.07,8.8-13.57,3.36-.9,5.22.1,5.72,1.97.67,2.51-1.87,5.1-4.25,5.74-.38.1-.74-.03-.81-.29-.1-.38.1-.66.41-1.52.3-.76.6-1.85.4-2.57-.14-.51-.46-.7-.97-.56-1.91.51-3.17,5-2.5,7.5.46,1.7,1.45,2.16,2.93,1.76,2.8-.75,3.47-3.03,4.11-3.2.3-.08.73.17.83.55.21.76-1.58,6.16-7.57,7.77Z" fill="#fff"/><path d="M412.22,365.72c-.14-.51.14-2.36.56-3.02.32-.5.82-.68,1.42-.84.38-3.02.71-5.66.43-6.72-.1-.38.2-.78,1.01-1,1.79-.48,4.62.76,4.95,2,.16.6-.12,2.08-.36,4.1,1.78-.48,2.04-.73,2.5-.85.3-.08.47.06.55.35.42,1.57-.11,3.67-3.55,4.6-.49,2.59-1.45,9.54-1.02,11.16.17.64.1,1.07-.58,1.25-1.96.52-4.85.76-5.26-.77-.5-1.87,1.12-8.73.77-10.05-.43.11-1.27.34-1.42-.21Z" fill="#fff"/><path d="M433.49,356.19c1.32-.35,2.37.18,2.75,1.59.59,2.21-1.36,5.97-2.59,6.3-.43.11-.64-.01-.82-.33-.4-.62-.76-2.16-1.78-1.89-.47.13-1.11.8-1.51,2.18-.8,2.63-1.2,7.43-.83,8.79.17.64.15,1.05-.53,1.24-2,.54-4.9.77-5.31-.76-.82-3.06,1.45-10.23.54-13.63-.11-.42.19-.82,1-1.04,3.78-1.01,4.47,1.72,4.64,1.67.17-.05,1.57-3.34,4.46-4.11Z" fill="#fff"/><path d="M444.29,353.2c4.25-1.14,7.12.23,7.92,3.21,1.38,5.14-2.31,11.78-9.06,13.59-3.44.92-6.38-.02-7.2-3.08-.98-3.65,1.43-6.72,2.24-7.62-.1-.2-.15-.37-.19-.54-.5-1.87,2.52-4.55,6.3-5.56ZM443.39,366.65c2.29-.62,3.44-6.89,2.74-9.48-.29-1.06-.76-1.3-1.57-1.08-1.15.31-2.17,1.95-1.75,3.48.24.89.74,1.21.85,1.64.07.25-.11.62-.45.71-.51.14-1.23.01-1.95-.3-.11.94-.12,2.08.18,3.23.41,1.53,1.09,2.03,1.94,1.8Z" fill="#fff"/><path d="M463.61,362.41c-.02-.08-.11-.06-.15-.05-.3.08-1.82,2.72-5.52,3.71-2.17.58-3.91-.5-4.55-2.88-1.48-5.52,2.52-13.02,9.45-14.88,3.65-.98,6.82.45,7.08,1.43s-1.24,3.52-1.05,9.16c.26,7.58.8,18.78-7.44,20.99-5.31,1.42-9.1-2.16-9.47-3.56-.1-.38.13-.72.47-.81.59-.16,1.37.68,3.96-.01,6.29-1.69,7.03-8.76,7.23-12.78.02-.1.04-.19,0-.32ZM459.28,360.52c.11.43.46.7.97.56,2.25-.6,3.92-8.48,3.67-9.41-.1-.38-.32-.51-.66-.42-2.59.7-4.72,6.51-3.98,9.27Z" fill="#fff"/><path d="M481.61,343.28c1.32-.35,2.37.18,2.75,1.59.59,2.21-1.36,5.97-2.59,6.3-.43.11-.64-.01-.82-.33-.4-.62-.76-2.16-1.78-1.89-.47.13-1.11.8-1.51,2.18-.8,2.63-1.2,7.43-.83,8.79.17.64.15,1.05-.53,1.24-2,.54-4.9.77-5.31-.76-.82-3.06,1.45-10.23.54-13.63-.11-.42.19-.82,1-1.04,3.78-1.01,4.47,1.72,4.64,1.67.17-.05,1.57-3.34,4.46-4.11Z" fill="#fff"/><path d="M500.51,354.65c-3.44.92-5.44-1.09-5.74-1.01-.51.14-2.04,3.1-5.91,4.13-2.17.58-3.91-.5-4.55-2.88-1.48-5.52,2.52-13.02,9.45-14.88,3.65-.98,6.86.44,7.12,1.42.22.81-2.08,5.48-.68,10.71.34,1.27.67,1.32.81,1.83.08.3-.08.57-.5.68ZM490.2,352.22c.11.43.46.7.97.56,2.25-.6,3.92-8.48,3.67-9.41-.1-.38-.32-.51-.66-.42-2.59.7-4.72,6.51-3.98,9.27Z" fill="#fff"/><path d="M526.81,345.73c.57,2.12,2.33,3.43,4.92,2.73,1.32-.35,1.79-.98,2.17-1.08.3-.08.57.08.65.37.23.85-1.7,4.37-6.24,5.59-3.53.95-7.04-.62-7.97-4.06-1.33-4.97,1.52-10.11,1.07-11.81-.1-.38-.38-.58-.85-.46-.64.17-1.89,1.1-2.61,3.34-.87,2.69-1.38,6.93-.89,8.76.17.64.15,1.05-.53,1.24-2,.54-4.68.71-5.09-.82-.65-2.42.85-8.2.5-9.52-.1-.38-.47-.56-.89-.44-.64.17-1.24.65-1.96,2.89-.86,2.74-1.77,7.31-1.28,9.14.17.64.15,1.05-.53,1.24-2,.54-4.9.77-5.31-.76-.82-3.06,1.41-10.22.49-13.62-.11-.43.19-.83,1-1.04,3.78-1.01,4.68,1.66,4.85,1.61.21-.06,1.69-3.37,4.92-4.24,3.4-.91,4.72,1.65,4.89,1.6.17-.05,1.99-3.45,5.26-4.33,2.12-.57,3.53.24,3.98,1.94.77,2.89-1.65,7.6-.55,11.72Z" fill="#fff"/><path d="M546.75,325.8c1.32-.35,2.37.18,2.75,1.59.59,2.21-1.36,5.97-2.59,6.3-.43.11-.64-.01-.82-.33-.4-.62-.76-2.16-1.78-1.89-.47.13-1.11.8-1.51,2.18-.8,2.63-1.2,7.43-.83,8.79.17.64.15,1.05-.53,1.24-2,.54-4.9.77-5.31-.76-.82-3.06,1.45-10.23.54-13.63-.11-.42.19-.82,1-1.04,3.78-1.01,4.47,1.72,4.64,1.67.17-.05,1.57-3.34,4.46-4.11Z" fill="#fff"/><path d="M562.81,331.7c.34-.09.77.16.87.54.21.76-1.03,5.83-7.7,7.62-2.89.77-5.78-.32-6.61-3.42-1.41-5.27,2.9-12.12,8.72-13.68,3.27-.88,5,.48,5.45,2.14.88,3.27-3.75,7.43-7.38,9.18.49.82,1.31,1.15,2.54.82,2.89-.77,3.47-3.03,4.11-3.2ZM555.55,331.64c2.56-1.51,4.32-4.12,3.96-5.44-.14-.51-.49-.64-.92-.53-1.36.36-3.06,3.19-3.05,5.96Z" fill="#fff"/><path d="M573.44,322.83c-.64.17-1.49.72-2.21,2.96-.86,2.74-1.77,7.31-1.28,9.14.17.64.15,1.05-.53,1.24-2,.54-4.9.77-5.31-.76-.82-3.06,1.41-10.22.49-13.62-.11-.43.19-.83,1-1.04,3.78-1.01,4.78,2.04,4.95,2,.17-.05,2.1-3.89,6.35-5.03,1.87-.5,3.56.18,3.98,1.76.78,2.89-1.3,8.05-.6,10.68.38,1.4.7,1.41.83,1.92.1.38-.23,1.02-1.33,1.31-2.63.71-4.73.86-5.3-1.26-.62-2.29.88-6.57.42-8.27-.23-.85-.74-1.21-1.46-1.02Z" fill="#fff"/><path d="M597.82,325.77c.39,1.44.72,1.49.86,2,.08.3-.08.57-.5.68-3.4.91-5.4-1.1-5.7-1.02-.55.15-2.46,3.21-5.95,4.15-2.12.57-4.08-.45-4.72-2.83-1.53-5.69,2.82-13.1,7.92-14.47,1.66-.44,2.91,0,3.04-.04.08-.02.16-.09.18-.18.65-4.73,1.21-9.43.81-10.92-.11-.43.19-.83,1-1.04,1.79-.48,4.64.81,4.95,2,.33,1.23-.42,6.4-1.22,11.58-.58,3.8-1.32,7.64-.66,10.11ZM587.59,326.37c.11.42.46.7.93.57,2.17-.58,4.04-8.19,3.74-9.34-.13-.47-.43-.57-.85-.46-2.59.7-4.55,6.46-3.81,9.22Z" fill="#fff"/><path d="M613.27,318.16c.34-.09.77.16.87.54.21.76-1.03,5.83-7.7,7.62-2.89.77-5.78-.32-6.61-3.42-1.41-5.27,2.9-12.12,8.72-13.68,3.27-.88,5,.48,5.45,2.14.88,3.27-3.75,7.43-7.38,9.18.49.82,1.31,1.15,2.54.82,2.89-.77,3.47-3.03,4.11-3.2ZM606.01,318.1c2.56-1.51,4.32-4.12,3.96-5.44-.14-.51-.49-.64-.92-.53-1.36.36-3.06,3.19-3.05,5.96Z" fill="#fff"/><path d="M625.88,304.57c1.32-.35,2.37.18,2.75,1.59.59,2.21-1.36,5.97-2.59,6.3-.43.11-.64-.01-.82-.33-.4-.62-.76-2.16-1.78-1.89-.47.13-1.11.8-1.51,2.18-.8,2.63-1.2,7.43-.83,8.79.17.64.15,1.05-.53,1.24-2,.54-4.9.77-5.31-.76-.82-3.06,1.45-10.23.54-13.63-.11-.42.19-.82,1-1.04,3.78-1.01,4.47,1.72,4.64,1.67.17-.05,1.57-3.34,4.46-4.11Z" fill="#fff"/><path d="M641.95,310.46c.34-.09.77.16.87.54.21.76-1.03,5.83-7.7,7.62-2.89.77-5.78-.32-6.61-3.42-1.41-5.27,2.9-12.12,8.72-13.68,3.27-.88,5,.48,5.45,2.14.88,3.27-3.75,7.43-7.38,9.18.49.82,1.31,1.15,2.54.82,2.89-.77,3.47-3.03,4.11-3.2ZM634.69,310.41c2.56-1.51,4.32-4.12,3.96-5.44-.14-.51-.49-.64-.92-.53-1.36.36-3.06,3.19-3.05,5.96Z" fill="#fff"/><path d="M654.57,296.87c1.32-.35,2.37.18,2.75,1.59.59,2.21-1.36,5.97-2.59,6.3-.43.11-.64-.01-.82-.33-.4-.62-.76-2.16-1.78-1.89-.47.13-1.11.8-1.51,2.18-.8,2.63-1.2,7.43-.83,8.79.17.64.15,1.05-.53,1.24-2,.54-4.9.77-5.31-.76-.82-3.06,1.45-10.23.54-13.63-.11-.42.19-.82,1-1.04,3.78-1.01,4.47,1.72,4.64,1.67.17-.05,1.57-3.34,4.46-4.11Z" fill="#fff"/><path d="M681.82,306.01c-3.44.92-5.44-1.09-5.74-1.01-.51.14-2.04,3.1-5.91,4.13-2.17.58-3.91-.5-4.55-2.88-1.48-5.52,2.52-13.02,9.45-14.88,3.65-.98,6.86.44,7.12,1.42.22.81-2.08,5.48-.68,10.71.34,1.27.67,1.32.81,1.83.08.3-.08.57-.5.68ZM671.51,303.58c.11.43.46.7.97.56,2.25-.6,3.92-8.48,3.67-9.41-.1-.38-.32-.51-.66-.42-2.59.7-4.72,6.51-3.98,9.27Z" fill="#fff"/><path d="M691.87,291.05c-.64.17-1.49.72-2.21,2.96-.86,2.74-1.77,7.31-1.28,9.14.17.64.15,1.05-.53,1.24-2,.54-4.9.77-5.31-.76-.82-3.06,1.41-10.22.49-13.62-.11-.43.19-.83,1-1.04,3.78-1.01,4.78,2.04,4.95,2,.17-.05,2.1-3.89,6.35-5.03,1.87-.5,3.56.18,3.98,1.76.77,2.89-1.3,8.05-.6,10.68.38,1.4.7,1.41.83,1.92.1.38-.23,1.02-1.33,1.31-2.63.71-4.73.86-5.3-1.26-.62-2.29.88-6.57.42-8.27-.23-.85-.74-1.21-1.46-1.02Z" fill="#fff"/><path d="M716.26,293.99c.39,1.44.72,1.49.86,2,.08.3-.08.57-.5.68-3.4.91-5.4-1.1-5.7-1.02-.55.15-2.46,3.21-5.95,4.15-2.12.57-4.08-.45-4.72-2.83-1.53-5.69,2.82-13.1,7.92-14.47,1.66-.44,2.91,0,3.04-.04.08-.02.16-.09.18-.18.64-4.73,1.21-9.43.81-10.92-.11-.43.19-.83,1-1.04,1.79-.48,4.63.81,4.95,2,.33,1.23-.42,6.4-1.22,11.58-.58,3.8-1.32,7.64-.66,10.11ZM706.04,294.59c.11.42.46.7.93.57,2.17-.58,4.04-8.19,3.74-9.34-.12-.47-.43-.57-.85-.46-2.59.7-4.55,6.46-3.81,9.22Z" fill="#fff"/><path d="M742.51,289.72c-3.44.92-5.44-1.09-5.74-1.01-.51.14-2.04,3.1-5.91,4.13-2.17.58-3.92-.5-4.55-2.88-1.48-5.52,2.52-13.02,9.45-14.88,3.65-.98,6.86.44,7.12,1.42.22.81-2.08,5.48-.68,10.71.34,1.27.67,1.32.81,1.83.08.3-.08.57-.5.68ZM732.2,287.29c.11.43.46.7.97.56,2.25-.6,3.92-8.48,3.67-9.41-.1-.38-.32-.51-.66-.42-2.59.7-4.72,6.51-3.98,9.27Z" fill="#fff"/><path d="M750.37,282.56c.14.51.46.7.93.57,2.46-.66,3.61-8.12,2.54-12.11-.11-.42.1-.8.7-.96,2.46-.66,5.35.43,5.72,1.79.35,1.32-1.61,6.72-.6,10.5.4,1.49.71,1.45.86,2,.08.3-.08.57-.5.68-3.44.92-5.4-1.1-5.7-1.02-.47.12-2.12,3.12-5.69,4.08-2,.54-3.88-.19-4.47-2.4-.82-3.06,1.33-8.79.42-12.18-.11-.42.23-.84,1.04-1.05,2.08-.56,4.67.75,5.13,2.5.59,2.21-.94,5.49-.37,7.62Z" fill="#fff"/><path d="M777.49,277.56c.39,1.44.72,1.49.86,2,.08.3-.08.57-.5.68-3.4.91-5.4-1.1-5.7-1.02-.55.15-2.46,3.21-5.95,4.15-2.12.57-4.08-.45-4.72-2.83-1.53-5.69,2.82-13.1,7.92-14.47,1.66-.44,2.91,0,3.04-.04.08-.02.16-.09.18-.18.64-4.73,1.21-9.43.81-10.92-.11-.43.19-.83,1-1.04,1.79-.48,4.63.81,4.95,2,.33,1.23-.42,6.4-1.22,11.58-.58,3.8-1.32,7.64-.66,10.11ZM767.27,278.16c.11.42.46.7.93.57,2.17-.58,4.04-8.19,3.74-9.34-.12-.47-.43-.57-.85-.46-2.59.7-4.55,6.46-3.81,9.22Z" fill="#fff"/><path d="M785.66,277.05c.17.64.15,1.05-.53,1.24-2,.54-4.9.77-5.31-.76-.82-3.06,1.79-10.32.88-13.72-.11-.43.19-.83,1-1.04,2.55-.68,4.64.81,4.95,2,.66,2.46-1.85,9.06-.99,12.29ZM784.49,252.99c1.53-.41,2.94.26,3.36,1.83.58,2.17-.53,4.65-2.48,5.18-1.49.4-3.07-.23-3.48-1.75-.59-2.21.52-4.69,2.6-5.25Z" fill="#fff"/><path d="M796.09,258.81c4.25-1.14,7.12.23,7.92,3.21,1.38,5.14-2.31,11.78-9.06,13.59-3.44.92-6.38-.02-7.2-3.08-.98-3.65,1.43-6.72,2.24-7.62-.1-.2-.15-.37-.19-.54-.5-1.87,2.52-4.55,6.3-5.56ZM795.19,272.26c2.29-.62,3.44-6.89,2.74-9.48-.29-1.06-.76-1.3-1.57-1.08-1.15.31-2.17,1.95-1.75,3.48.24.89.74,1.21.85,1.64.07.25-.11.62-.45.71-.51.14-1.23.01-1.95-.3-.11.94-.12,2.08.18,3.23.41,1.53,1.09,2.03,1.94,1.8Z" fill="#fff"/><path d="M824.25,251.35c2.46-.66,4.2.38,4.95,3.18,1.36,5.06-1.27,12.41-6.58,13.84-1.78.48-3.41-.13-3.53-.1-.08.02-.12.08-.16.27-.43,2.12-1.02,6.74-.36,9.21.17.64.13,1.01-.54,1.19-2,.54-4.97-.35-5.39-1.92-.88-3.27,2.16-18.12,1.1-22.07-.11-.43.23-.84,1.04-1.05,3.53-.95,4.51,1.71,4.72,1.65.17-.05,1.57-3.34,4.75-4.19ZM823.46,256.07c-.15-.55-.61-.75-.99-.64-1.78.48-3.69,7.14-3.17,9.05.1.38.53.63.92.53,2.29-.62,3.97-6.26,3.25-8.94Z" fill="#fff"/><path d="M836.63,263.37c.17.64.15,1.05-.53,1.24-2,.54-4.9.77-5.31-.76-.82-3.06,3.07-21.5,2.16-24.9-.11-.42.19-.83,1-1.04,1.79-.48,4.68.79,5,1.98.67,2.51-3.18,20.26-2.31,23.49Z" fill="#fff"/><path d="M855.27,259.47c-3.44.92-5.44-1.09-5.74-1.01-.51.14-2.04,3.1-5.91,4.13-2.17.58-3.92-.5-4.55-2.88-1.48-5.52,2.52-13.02,9.45-14.88,3.65-.98,6.86.44,7.12,1.42.22.81-2.08,5.48-.68,10.71.34,1.27.67,1.32.81,1.83.08.3-.08.57-.5.68ZM844.96,257.04c.11.43.46.7.97.56,2.25-.6,3.92-8.48,3.67-9.41-.1-.38-.32-.51-.66-.42-2.59.7-4.72,6.51-3.98,9.27Z" fill="#fff"/><path d="M864.15,252.85c.55-.15,2-1.22,2.46-2.71,1.27-4.08,1.1-6.95.41-9.5-.11-.42.1-.8.61-.94,3.1-.83,5.4.42,5.76,1.78.23.85-.42,5.22-.68,9.7-.44,7.54.1,18.38-7.72,20.47-5.31,1.42-9.11-2.2-9.49-3.61-.1-.38.13-.72.47-.81.59-.16,1.37.68,3.96-.01,6.29-1.69,6.91-9.05,7.17-13.17-.03-.13-.01-.22-.04-.31-.01-.04-.07-.07-.11-.06-.47.12-1.89,3.15-5.84,4.21-2,.54-3.65-.02-4.21-2.11-.83-3.1,1.62-9.23.71-12.63-.11-.42.23-.84,1-1.04,2.12-.57,4.71.74,5.18,2.48.65,2.42-1.2,5.56-.63,7.68.14.51.5.69.97.56Z" fill="#fff"/><path d="M887.95,244.46c.34-.09.77.16.87.54.21.76-1.03,5.83-7.7,7.62-2.89.77-5.78-.32-6.61-3.42-1.41-5.27,2.9-12.12,8.72-13.68,3.27-.88,5,.48,5.45,2.14.88,3.27-3.75,7.43-7.38,9.18.49.82,1.31,1.15,2.54.82,2.89-.77,3.47-3.03,4.11-3.2ZM880.69,244.4c2.56-1.51,4.32-4.12,3.96-5.44-.14-.51-.49-.64-.92-.53-1.36.36-3.06,3.19-3.05,5.96Z" fill="#fff"/><path d="M900.59,230.86c1.32-.35,2.37.18,2.75,1.59.59,2.21-1.36,5.97-2.59,6.3-.42.11-.64-.01-.82-.33-.39-.62-.76-2.16-1.78-1.89-.47.13-1.11.8-1.51,2.18-.8,2.63-1.2,7.43-.83,8.79.17.64.15,1.05-.53,1.24-2,.54-4.9.77-5.31-.76-.82-3.06,1.45-10.23.54-13.63-.11-.42.19-.82,1-1.04,3.78-1.01,4.47,1.72,4.64,1.67.17-.05,1.56-3.34,4.46-4.11Z" fill="#fff"/><path d="M115.7,349.03c-3.19.85-4.23-.73-6.19-4.55-3.08-5.7-8.42-11.72-15.09-9.93-4.06,1.09-5.96,4.4-4.95,8.16,3.96,14.78,38.82,10.4,44.73,32.42,5.36,19.99-7.63,38.7-41.53,47.8-29.55,7.93-49.32-3.23-51.42-11.05-2.25-8.4,11.42-25.74,21.27-28.38,4.06-1.09,5.68.34,6.88,2.5,4.67,9.31,13.2,14.47,19.58,12.76,3.48-.93,5.46-3.95,4.61-7.14-4.98-18.54-41.02-11.67-46.86-33.4-5.21-19.41,14.76-38.75,44.32-46.68,23.76-6.38,40.49,1.56,43.21,11.7,2.02,7.53-11.31,23.84-18.55,25.79Z" fill="#fce421"/><path d="M217.99,277.48c16.81-4.51,28.64,2.56,33.77,21.69,9.25,34.48-8.66,84.64-44.88,94.35-12.17,3.27-23.23-.91-24.1-.68-.58.16-.79.52-1.06,1.84-2.95,14.46-6.92,45.96-2.42,62.77,1.17,4.35.92,6.9-3.72,8.14-13.62,3.65-33.88-2.4-36.76-13.12-5.99-22.31,14.69-123.53,7.46-150.47-.78-2.9,1.58-5.7,7.08-7.18,24.05-6.45,30.76,11.62,32.21,11.24,1.16-.31,10.67-22.74,32.4-28.57ZM212.65,309.66c-1.01-3.77-4.16-5.1-6.77-4.4-12.17,3.27-25.14,48.68-21.65,61.72.7,2.61,3.64,4.3,6.25,3.6,15.65-4.2,27.07-42.67,22.17-60.93Z" fill="#fce421"/><path d="M352.14,311.06c2.32-.62,5.26,1.07,5.96,3.68,1.4,5.22-7.03,39.78-52.52,51.99-19.7,5.29-39.41-2.16-45.08-23.31-9.64-35.93,19.76-82.64,59.45-93.29,22.31-5.99,34.11,3.27,37.14,14.57,5.99,22.31-25.55,50.65-50.3,62.57,3.37,5.62,8.94,7.85,17.34,5.6,19.7-5.29,23.66-20.64,28.01-21.8ZM302.65,310.67c17.43-10.27,29.43-28.08,27.02-37.07-.93-3.48-3.35-4.38-6.25-3.6-9.27,2.49-20.88,21.75-20.77,40.67Z" fill="#fce421"/><path d="M411.34,339.6c-25.5,6.84-42.77-3.12-48.52-24.56-8.94-33.32,22.02-82.32,59.98-92.5,22.89-6.14,35.6.7,39.02,13.45,4.59,17.1-12.72,34.78-28.95,39.14-2.61.7-5.02-.2-5.49-1.94-.7-2.61.65-4.52,2.81-10.38,2.02-5.2,4.08-12.59,2.76-17.51-.93-3.48-3.14-4.75-6.61-3.82-13.04,3.5-21.61,34.06-17.02,51.16,3.11,11.59,9.86,14.75,20,12.03,19.12-5.13,23.66-20.64,28.01-21.8,2.03-.54,4.97,1.15,5.67,3.76,1.4,5.22-10.78,42.03-51.63,52.99Z" fill="#fce421"/><path d="M467.08,236.74c-.93-3.48.96-16.1,3.79-20.59,2.2-3.39,5.6-4.61,9.65-5.7,2.56-20.57,4.87-38.58,2.92-45.82-.7-2.61,1.36-5.34,6.87-6.81,12.17-3.27,31.53,5.21,33.78,13.61,1.09,4.06-.85,14.21-2.43,27.99,12.17-3.27,13.89-4.97,17.07-5.82,2.03-.54,3.21.38,3.75,2.41,2.88,10.72-.73,25.05-24.2,31.34-3.33,17.67-9.87,65.08-6.92,76.09,1.17,4.35.71,7.27-3.93,8.51-13.33,3.58-33.1,5.15-35.89-5.28-3.42-12.75,7.64-59.51,5.23-68.49-2.9.78-8.69,2.33-9.7-1.43Z" fill="#fce421"/><path d="M646.74,274.57c-23.47,6.3-37.1-7.44-39.12-6.9-3.48.93-13.9,21.12-40.27,28.2-14.78,3.96-26.69-3.4-31.05-19.62-10.11-37.67,17.18-88.78,64.41-101.46,24.92-6.69,46.77,2.98,48.56,9.65,1.48,5.5-14.2,37.36-4.64,73,2.33,8.69,4.59,9.02,5.53,12.49.54,2.03-.52,3.87-3.41,4.64ZM576.45,258.02c.78,2.9,3.14,4.75,6.62,3.82,15.36-4.12,26.73-57.8,25.02-64.18-.7-2.61-2.17-3.46-4.49-2.83-17.67,4.74-32.2,44.36-27.15,63.19Z" fill="#fce421"/><path d="M726.37,185.18c-3.19.85-4.23-.73-6.19-4.55-3.08-5.7-8.42-11.72-15.09-9.93-4.06,1.09-5.96,4.4-4.95,8.16,3.96,14.78,38.82,10.4,44.73,32.42,5.36,19.99-7.63,38.7-41.53,47.8-29.55,7.93-49.32-3.23-51.42-11.05-2.25-8.4,11.42-25.74,21.27-28.38,4.06-1.09,5.68.34,6.88,2.5,4.67,9.31,13.2,14.47,19.58,12.76,3.48-.93,5.46-3.95,4.61-7.14-4.98-18.54-41.03-11.67-46.86-33.4-5.21-19.41,14.76-38.75,44.32-46.68,23.76-6.38,40.49,1.56,43.21,11.7,2.02,7.53-11.31,23.84-18.55,25.79Z" fill="#fce421"/><path d="M750.39,160.72c-.93-3.48.96-16.1,3.79-20.59,2.2-3.39,5.6-4.61,9.65-5.7,2.56-20.57,4.87-38.58,2.92-45.82-.7-2.61,1.36-5.34,6.87-6.81,12.17-3.27,31.53,5.21,33.78,13.61,1.09,4.06-.85,14.21-2.43,27.99,12.17-3.27,13.89-4.97,17.07-5.82,2.03-.54,3.21.38,3.75,2.41,2.88,10.72-.73,25.05-24.2,31.34-3.33,17.67-9.87,65.08-6.92,76.09,1.17,4.35.71,7.27-3.93,8.51-13.33,3.58-33.1,5.15-35.89-5.28-3.42-12.75,7.64-59.51,5.23-68.49-2.9.78-8.69,2.33-9.7-1.43Z" fill="#fce421"/><path d="M860.21,209.84c1.17,4.35,1,7.19-3.64,8.43-13.62,3.65-33.38,5.23-36.18-5.2-5.6-20.86,12.18-70.36,5.96-93.54-.78-2.9,1.29-5.63,6.79-7.1,17.39-4.66,31.6,5.5,33.78,13.61,4.51,16.81-12.62,61.78-6.71,83.8ZM852.23,45.81c10.43-2.8,20.04,1.77,22.92,12.49,3.96,14.78-3.6,31.72-16.93,35.29-10.14,2.72-20.91-1.53-23.71-11.96-4.04-15.07,3.53-32.01,17.72-35.82Z" fill="#fce421"/><path d="M977.92,243.18c1.17,4.35.92,6.9-3.72,8.14-13.62,3.65-36.01-3.38-38.81-13.82-2.49-9.27.38-28.68,2.47-50.98-.16-.58-.52-.79-.81-.71-2.03.54-10.61,13.72-31.18,19.24-14.78,3.96-26.69-3.4-31.05-19.62-10.11-37.67,17.18-88.78,64.41-101.46,24.92-6.69,46.77,2.98,48.56,9.65,3.19,11.88-20.61,109.58-9.88,149.57ZM914.98,167.19c.78,2.9,3.14,4.75,6.62,3.82,15.36-4.12,26.73-57.8,25.02-64.18-.7-2.61-2.17-3.46-4.49-2.83-14.2,3.81-32.2,44.36-27.15,63.19Z" fill="#fce421"/><path d="M108.7,341.03c-3.19.85-4.23-.73-6.19-4.55-3.08-5.7-8.42-11.72-15.09-9.93-4.06,1.09-5.96,4.4-4.95,8.16,3.96,14.78,38.82,10.4,44.73,32.42,5.36,19.99-7.63,38.7-41.53,47.8-29.55,7.93-49.32-3.23-51.42-11.05-2.25-8.4,11.42-25.74,21.27-28.38,4.06-1.09,5.68.34,6.88,2.5,4.67,9.31,13.2,14.47,19.58,12.76,3.48-.93,5.46-3.95,4.61-7.14-4.98-18.54-41.02-11.67-46.86-33.4-5.21-19.41,14.76-38.75,44.32-46.68,23.76-6.38,40.49,1.56,43.21,11.7,2.02,7.53-11.31,23.84-18.55,25.79Z" fill="#f7931e"/><path d="M210.99,269.48c16.81-4.51,28.64,2.56,33.77,21.69,9.25,34.48-8.66,84.64-44.88,94.35-12.17,3.27-23.23-.91-24.1-.68-.58.16-.79.52-1.06,1.84-2.95,14.46-6.92,45.96-2.42,62.77,1.17,4.35.92,6.9-3.72,8.14-13.62,3.65-33.88-2.4-36.76-13.12-5.99-22.31,14.69-123.53,7.46-150.47-.78-2.9,1.58-5.7,7.08-7.18,24.05-6.45,30.76,11.62,32.21,11.24,1.16-.31,10.67-22.74,32.4-28.57ZM205.65,301.66c-1.01-3.77-4.16-5.1-6.77-4.4-12.17,3.27-25.14,48.68-21.65,61.72.7,2.61,3.64,4.3,6.25,3.6,15.65-4.2,27.07-42.67,22.17-60.93Z" fill="#f7931e"/><path d="M345.14,303.06c2.32-.62,5.26,1.07,5.96,3.68,1.4,5.22-7.03,39.78-52.52,51.99-19.7,5.29-39.41-2.16-45.08-23.31-9.64-35.93,19.76-82.64,59.45-93.29,22.31-5.99,34.11,3.27,37.14,14.57,5.99,22.31-25.55,50.65-50.3,62.57,3.37,5.62,8.94,7.85,17.34,5.6,19.7-5.29,23.66-20.64,28.01-21.8ZM295.65,302.67c17.43-10.27,29.43-28.08,27.02-37.07-.93-3.48-3.35-4.38-6.25-3.6-9.27,2.49-20.88,21.75-20.77,40.67Z" fill="#f7931e"/><path d="M404.34,331.6c-25.5,6.84-42.77-3.12-48.52-24.56-8.94-33.32,22.02-82.32,59.98-92.5,22.89-6.14,35.6.7,39.02,13.45,4.59,17.1-12.72,34.78-28.95,39.14-2.61.7-5.02-.2-5.49-1.94-.7-2.61.65-4.52,2.81-10.38,2.02-5.2,4.08-12.59,2.76-17.51-.93-3.48-3.14-4.75-6.61-3.82-13.04,3.5-21.61,34.06-17.02,51.16,3.11,11.59,9.86,14.75,20,12.03,19.12-5.13,23.66-20.64,28.01-21.8,2.03-.54,4.97,1.15,5.67,3.76,1.4,5.22-10.78,42.03-51.63,52.99Z" fill="#f7931e"/><path d="M460.08,228.74c-.93-3.48.96-16.1,3.79-20.59,2.2-3.39,5.6-4.61,9.65-5.7,2.56-20.57,4.87-38.58,2.92-45.82-.7-2.61,1.36-5.34,6.87-6.81,12.17-3.27,31.53,5.21,33.78,13.61,1.09,4.06-.85,14.21-2.43,27.99,12.17-3.27,13.89-4.97,17.07-5.82,2.03-.54,3.21.38,3.75,2.41,2.88,10.72-.73,25.05-24.2,31.34-3.33,17.67-9.87,65.08-6.92,76.09,1.17,4.35.71,7.27-3.93,8.51-13.33,3.58-33.1,5.15-35.89-5.28-3.42-12.75,7.64-59.51,5.23-68.49-2.9.78-8.69,2.33-9.7-1.43Z" fill="#f7931e"/><path d="M639.74,266.57c-23.47,6.3-37.1-7.44-39.12-6.9-3.48.93-13.9,21.12-40.27,28.2-14.78,3.96-26.69-3.4-31.05-19.62-10.11-37.67,17.18-88.78,64.41-101.46,24.92-6.69,46.77,2.98,48.56,9.65,1.48,5.5-14.2,37.36-4.64,73,2.33,8.69,4.59,9.02,5.53,12.49.54,2.03-.52,3.87-3.41,4.64ZM569.45,250.02c.78,2.9,3.14,4.75,6.61,3.82,15.36-4.12,26.73-57.8,25.02-64.18-.7-2.61-2.17-3.46-4.49-2.83-17.67,4.74-32.2,44.36-27.15,63.19Z" fill="#f7931e"/><path d="M719.37,177.18c-3.19.85-4.23-.73-6.19-4.55-3.08-5.7-8.42-11.72-15.09-9.93-4.06,1.09-5.96,4.4-4.95,8.16,3.96,14.78,38.82,10.4,44.73,32.42,5.36,19.99-7.63,38.7-41.53,47.8-29.55,7.93-49.32-3.23-51.42-11.05-2.25-8.4,11.42-25.74,21.27-28.38,4.06-1.09,5.68.34,6.88,2.5,4.67,9.31,13.2,14.47,19.58,12.76,3.48-.93,5.46-3.95,4.61-7.14-4.98-18.54-41.03-11.67-46.86-33.4-5.21-19.41,14.76-38.75,44.32-46.68,23.76-6.38,40.49,1.56,43.21,11.7,2.02,7.53-11.31,23.84-18.55,25.79Z" fill="#f7931e"/><path d="M743.39,152.72c-.93-3.48.96-16.1,3.79-20.59,2.2-3.39,5.6-4.61,9.65-5.7,2.56-20.57,4.87-38.58,2.92-45.82-.7-2.61,1.36-5.34,6.87-6.81,12.17-3.27,31.53,5.21,33.78,13.61,1.09,4.06-.85,14.21-2.43,27.99,12.17-3.27,13.89-4.97,17.07-5.82,2.03-.54,3.21.38,3.75,2.41,2.88,10.72-.73,25.05-24.2,31.34-3.33,17.67-9.87,65.08-6.92,76.09,1.17,4.35.71,7.27-3.93,8.51-13.33,3.58-33.1,5.15-35.89-5.28-3.42-12.75,7.64-59.51,5.23-68.49-2.9.78-8.69,2.33-9.7-1.43Z" fill="#f7931e"/><path d="M853.21,201.84c1.17,4.35,1,7.19-3.64,8.43-13.62,3.65-33.38,5.23-36.18-5.2-5.6-20.86,12.18-70.36,5.96-93.54-.78-2.9,1.29-5.63,6.79-7.1,17.39-4.66,31.6,5.5,33.78,13.61,4.51,16.81-12.62,61.78-6.71,83.8ZM845.23,37.81c10.43-2.8,20.04,1.77,22.92,12.49,3.96,14.78-3.6,31.72-16.93,35.29-10.14,2.72-20.91-1.53-23.71-11.96-4.04-15.07,3.53-32.01,17.72-35.82Z" fill="#f7931e"/><path d="M970.92,235.18c1.17,4.35.92,6.9-3.72,8.14-13.62,3.65-36.01-3.38-38.81-13.82-2.49-9.27.38-28.68,2.47-50.98-.16-.58-.52-.79-.81-.71-2.03.54-10.61,13.72-31.18,19.24-14.78,3.96-26.69-3.4-31.05-19.62-10.11-37.67,17.18-88.78,64.41-101.46,24.92-6.69,46.77,2.98,48.56,9.65,3.19,11.88-20.61,109.58-9.88,149.57ZM907.98,159.19c.78,2.9,3.14,4.75,6.62,3.82,15.36-4.12,26.73-57.8,25.02-64.18-.7-2.61-2.17-3.46-4.49-2.83-14.2,3.81-32.2,44.36-27.15,63.19Z" fill="#f7931e"/><path d="M101.7,332.03c-3.19.85-4.23-.73-6.19-4.55-3.08-5.7-8.42-11.72-15.09-9.93-4.06,1.09-5.96,4.4-4.95,8.16,3.96,14.78,38.82,10.4,44.73,32.42,5.36,19.99-7.63,38.7-41.53,47.8-29.55,7.93-49.32-3.23-51.42-11.05-2.25-8.4,11.42-25.74,21.27-28.38,4.06-1.09,5.68.34,6.88,2.5,4.67,9.31,13.2,14.47,19.58,12.76,3.48-.93,5.46-3.95,4.61-7.14-4.98-18.54-41.02-11.67-46.86-33.4-5.21-19.41,14.76-38.75,44.32-46.68,23.76-6.38,40.49,1.56,43.21,11.7,2.02,7.53-11.31,23.84-18.55,25.79Z" fill="#ed1e79"/><path d="M203.99,260.48c16.81-4.51,28.64,2.56,33.77,21.69,9.25,34.48-8.66,84.64-44.88,94.35-12.17,3.27-23.23-.91-24.1-.68-.58.16-.79.52-1.06,1.84-2.95,14.46-6.92,45.96-2.42,62.77,1.17,4.35.92,6.9-3.72,8.14-13.62,3.65-33.88-2.4-36.76-13.12-5.99-22.31,14.69-123.53,7.46-150.47-.78-2.9,1.58-5.7,7.08-7.18,24.05-6.45,30.76,11.62,32.21,11.24,1.16-.31,10.67-22.74,32.4-28.57ZM198.65,292.66c-1.01-3.77-4.16-5.1-6.77-4.4-12.17,3.27-25.14,48.68-21.65,61.72.7,2.61,3.64,4.3,6.25,3.6,15.65-4.2,27.07-42.67,22.17-60.93Z" fill="#ed1e79"/><path d="M338.14,294.06c2.32-.62,5.26,1.07,5.96,3.68,1.4,5.22-7.03,39.78-52.52,51.99-19.7,5.29-39.41-2.16-45.08-23.31-9.64-35.93,19.76-82.64,59.45-93.29,22.31-5.99,34.11,3.27,37.14,14.57,5.99,22.31-25.55,50.65-50.3,62.57,3.37,5.62,8.94,7.85,17.34,5.6,19.7-5.29,23.66-20.64,28.01-21.8ZM288.65,293.67c17.43-10.27,29.43-28.08,27.02-37.07-.93-3.48-3.35-4.38-6.25-3.6-9.27,2.49-20.88,21.75-20.77,40.67Z" fill="#ed1e79"/><path d="M397.34,322.6c-25.5,6.84-42.77-3.12-48.52-24.56-8.94-33.32,22.02-82.32,59.98-92.5,22.89-6.14,35.6.7,39.02,13.45,4.59,17.1-12.72,34.78-28.95,39.14-2.61.7-5.02-.2-5.49-1.94-.7-2.61.65-4.52,2.81-10.38,2.02-5.2,4.08-12.59,2.76-17.51-.93-3.48-3.14-4.75-6.61-3.82-13.04,3.5-21.61,34.06-17.02,51.16,3.11,11.59,9.86,14.75,20,12.03,19.12-5.13,23.66-20.64,28.01-21.8,2.03-.54,4.97,1.15,5.67,3.76,1.4,5.22-10.78,42.03-51.63,52.99Z" fill="#ed1e79"/><path d="M453.08,219.74c-.93-3.48.96-16.1,3.79-20.59,2.2-3.39,5.6-4.61,9.65-5.7,2.56-20.57,4.87-38.58,2.92-45.82-.7-2.61,1.36-5.34,6.87-6.81,12.17-3.27,31.53,5.21,33.78,13.61,1.09,4.06-.85,14.21-2.43,27.99,12.17-3.27,13.89-4.97,17.07-5.82,2.03-.54,3.21.38,3.75,2.41,2.88,10.72-.73,25.05-24.2,31.34-3.33,17.67-9.87,65.08-6.92,76.09,1.17,4.35.71,7.27-3.93,8.51-13.33,3.58-33.1,5.15-35.89-5.28-3.42-12.75,7.64-59.51,5.23-68.49-2.9.78-8.69,2.33-9.7-1.43Z" fill="#ed1e79"/><path d="M632.74,257.57c-23.47,6.3-37.1-7.44-39.12-6.9-3.48.93-13.9,21.12-40.27,28.2-14.78,3.96-26.69-3.4-31.05-19.62-10.11-37.67,17.18-88.78,64.41-101.46,24.92-6.69,46.77,2.98,48.56,9.65,1.48,5.5-14.2,37.36-4.64,73,2.33,8.69,4.59,9.02,5.53,12.49.54,2.03-.52,3.87-3.41,4.64ZM562.45,241.02c.78,2.9,3.14,4.75,6.61,3.82,15.36-4.12,26.73-57.8,25.02-64.18-.7-2.61-2.17-3.46-4.49-2.83-17.67,4.74-32.2,44.36-27.15,63.19Z" fill="#ed1e79"/><path d="M712.37,168.18c-3.19.85-4.23-.73-6.19-4.55-3.08-5.7-8.42-11.72-15.09-9.93-4.06,1.09-5.96,4.4-4.95,8.16,3.96,14.78,38.82,10.4,44.73,32.42,5.36,19.99-7.63,38.7-41.53,47.8-29.55,7.93-49.32-3.23-51.42-11.05-2.25-8.4,11.42-25.74,21.27-28.38,4.06-1.09,5.68.34,6.88,2.5,4.67,9.31,13.2,14.47,19.58,12.76,3.48-.93,5.46-3.95,4.61-7.14-4.98-18.54-41.03-11.67-46.86-33.4-5.21-19.41,14.76-38.75,44.32-46.68,23.76-6.38,40.49,1.56,43.21,11.7,2.02,7.53-11.31,23.84-18.55,25.79Z" fill="#ed1e79"/><path d="M736.39,143.72c-.93-3.48.96-16.1,3.79-20.59,2.2-3.39,5.6-4.61,9.65-5.7,2.56-20.57,4.87-38.58,2.92-45.82-.7-2.61,1.36-5.34,6.87-6.81,12.17-3.27,31.53,5.21,33.78,13.61,1.09,4.06-.85,14.21-2.43,27.99,12.17-3.27,13.89-4.97,17.07-5.82,2.03-.54,3.21.38,3.75,2.41,2.88,10.72-.73,25.05-24.2,31.34-3.33,17.67-9.87,65.08-6.92,76.09,1.17,4.35.71,7.27-3.93,8.51-13.33,3.58-33.1,5.15-35.89-5.28-3.42-12.75,7.64-59.51,5.23-68.49-2.9.78-8.69,2.33-9.7-1.43Z" fill="#ed1e79"/><path d="M846.21,192.84c1.17,4.35,1,7.19-3.64,8.43-13.62,3.65-33.38,5.23-36.18-5.2-5.6-20.86,12.18-70.36,5.96-93.54-.78-2.9,1.29-5.63,6.79-7.1,17.39-4.66,31.6,5.5,33.78,13.61,4.51,16.81-12.62,61.78-6.71,83.8ZM838.23,28.81c10.43-2.8,20.04,1.77,22.92,12.49,3.96,14.78-3.6,31.72-16.93,35.29-10.14,2.72-20.91-1.53-23.71-11.96-4.04-15.07,3.53-32.01,17.72-35.82Z" fill="#ed1e79"/><path d="M963.92,226.18c1.17,4.35.92,6.9-3.72,8.14-13.62,3.65-36.01-3.38-38.81-13.82-2.49-9.27.38-28.68,2.47-50.98-.16-.58-.52-.79-.81-.71-2.03.54-10.61,13.72-31.18,19.24-14.78,3.96-26.69-3.4-31.05-19.62-10.11-37.67,17.18-88.78,64.41-101.46,24.92-6.69,46.77,2.98,48.56,9.65,3.19,11.88-20.61,109.58-9.88,149.57ZM900.98,150.19c.78,2.9,3.14,4.75,6.62,3.82,15.36-4.12,26.73-57.8,25.02-64.18-.7-2.61-2.17-3.46-4.49-2.83-14.2,3.81-32.2,44.36-27.15,63.19Z" fill="#ed1e79"/><path d="M92.7,323.03c-3.19.85-4.23-.73-6.19-4.55-3.08-5.7-8.42-11.72-15.09-9.93-4.06,1.09-5.96,4.4-4.95,8.16,3.96,14.78,38.82,10.4,44.73,32.42,5.36,19.99-7.63,38.7-41.53,47.8-29.55,7.93-49.32-3.23-51.42-11.05-2.25-8.4,11.42-25.74,21.27-28.38,4.06-1.09,5.68.34,6.88,2.5,4.67,9.31,13.2,14.47,19.58,12.76,3.48-.93,5.46-3.95,4.61-7.14-4.98-18.54-41.02-11.67-46.86-33.4-5.21-19.41,14.76-38.75,44.32-46.68,23.76-6.38,40.49,1.56,43.21,11.7,2.02,7.53-11.31,23.84-18.55,25.79Z" fill="#93278f"/><path d="M194.99,251.48c16.81-4.51,28.64,2.56,33.77,21.69,9.25,34.48-8.66,84.64-44.88,94.35-12.17,3.27-23.23-.91-24.1-.68-.58.16-.79.52-1.06,1.84-2.95,14.46-6.92,45.96-2.42,62.77,1.17,4.35.92,6.9-3.72,8.14-13.62,3.65-33.88-2.4-36.76-13.12-5.99-22.31,14.69-123.53,7.46-150.47-.78-2.9,1.58-5.7,7.08-7.18,24.05-6.45,30.76,11.62,32.21,11.24,1.16-.31,10.67-22.74,32.4-28.57ZM189.65,283.66c-1.01-3.77-4.16-5.1-6.77-4.4-12.17,3.27-25.14,48.68-21.65,61.72.7,2.61,3.64,4.3,6.25,3.6,15.65-4.2,27.07-42.67,22.17-60.93Z" fill="#93278f"/><path d="M329.14,285.06c2.32-.62,5.26,1.07,5.96,3.68,1.4,5.22-7.03,39.78-52.52,51.99-19.7,5.29-39.41-2.16-45.08-23.31-9.64-35.93,19.76-82.64,59.45-93.29,22.31-5.99,34.11,3.27,37.14,14.57,5.99,22.31-25.55,50.65-50.3,62.57,3.37,5.62,8.94,7.85,17.34,5.6,19.7-5.29,23.66-20.64,28.01-21.8ZM279.65,284.67c17.43-10.27,29.43-28.08,27.02-37.07-.93-3.48-3.35-4.38-6.25-3.6-9.27,2.49-20.88,21.75-20.77,40.67Z" fill="#93278f"/><path d="M388.34,313.6c-25.5,6.84-42.77-3.12-48.52-24.56-8.94-33.32,22.02-82.32,59.98-92.5,22.89-6.14,35.6.7,39.02,13.45,4.59,17.1-12.72,34.78-28.95,39.14-2.61.7-5.02-.2-5.49-1.94-.7-2.61.65-4.52,2.81-10.38,2.02-5.2,4.08-12.59,2.76-17.51-.93-3.48-3.14-4.75-6.61-3.82-13.04,3.5-21.61,34.06-17.02,51.16,3.11,11.59,9.86,14.75,20,12.03,19.12-5.13,23.66-20.64,28.01-21.8,2.03-.54,4.97,1.15,5.67,3.76,1.4,5.22-10.78,42.03-51.63,52.99Z" fill="#93278f"/><path d="M444.08,210.74c-.93-3.48.96-16.1,3.79-20.59,2.2-3.39,5.6-4.61,9.65-5.7,2.56-20.57,4.87-38.58,2.92-45.82-.7-2.61,1.36-5.34,6.87-6.81,12.17-3.27,31.53,5.21,33.78,13.61,1.09,4.06-.85,14.21-2.43,27.99,12.17-3.27,13.89-4.97,17.07-5.82,2.03-.54,3.21.38,3.75,2.41,2.88,10.72-.73,25.05-24.2,31.34-3.33,17.67-9.87,65.08-6.92,76.09,1.17,4.35.71,7.27-3.93,8.51-13.33,3.58-33.1,5.15-35.89-5.28-3.42-12.75,7.64-59.51,5.23-68.49-2.9.78-8.69,2.33-9.7-1.43Z" fill="#93278f"/><path d="M623.74,248.57c-23.47,6.3-37.1-7.44-39.12-6.9-3.48.93-13.9,21.12-40.27,28.2-14.78,3.96-26.69-3.4-31.05-19.62-10.11-37.67,17.18-88.78,64.41-101.46,24.92-6.69,46.77,2.98,48.56,9.65,1.48,5.5-14.2,37.36-4.64,73,2.33,8.69,4.59,9.02,5.53,12.49.54,2.03-.52,3.87-3.41,4.64ZM553.45,232.02c.78,2.9,3.14,4.75,6.62,3.82,15.36-4.12,26.73-57.8,25.02-64.18-.7-2.61-2.17-3.46-4.49-2.83-17.67,4.74-32.2,44.36-27.15,63.19Z" fill="#93278f"/><path d="M703.37,159.18c-3.19.85-4.23-.73-6.19-4.55-3.08-5.7-8.42-11.72-15.09-9.93-4.06,1.09-5.96,4.4-4.95,8.16,3.96,14.78,38.82,10.4,44.73,32.42,5.36,19.99-7.63,38.7-41.53,47.8-29.55,7.93-49.32-3.23-51.42-11.05-2.25-8.4,11.42-25.74,21.27-28.38,4.06-1.09,5.68.34,6.88,2.5,4.67,9.31,13.2,14.47,19.58,12.76,3.48-.93,5.46-3.95,4.61-7.14-4.98-18.54-41.03-11.67-46.86-33.4-5.21-19.41,14.76-38.75,44.32-46.68,23.76-6.38,40.49,1.56,43.21,11.7,2.02,7.53-11.31,23.84-18.55,25.79Z" fill="#93278f"/><path d="M727.39,134.72c-.93-3.48.96-16.1,3.79-20.59,2.2-3.39,5.6-4.61,9.65-5.7,2.56-20.57,4.87-38.58,2.92-45.82-.7-2.61,1.36-5.34,6.87-6.81,12.17-3.27,31.53,5.21,33.78,13.61,1.09,4.06-.85,14.21-2.43,27.99,12.17-3.27,13.89-4.97,17.07-5.82,2.03-.54,3.21.38,3.75,2.41,2.88,10.72-.73,25.05-24.2,31.34-3.33,17.67-9.87,65.08-6.92,76.09,1.17,4.35.71,7.27-3.93,8.51-13.33,3.58-33.1,5.15-35.89-5.28-3.42-12.75,7.64-59.51,5.23-68.49-2.9.78-8.69,2.33-9.7-1.43Z" fill="#93278f"/><path d="M837.21,183.84c1.17,4.35,1,7.19-3.64,8.43-13.62,3.65-33.38,5.23-36.18-5.2-5.6-20.86,12.18-70.36,5.96-93.54-.78-2.9,1.29-5.63,6.79-7.1,17.39-4.66,31.6,5.5,33.78,13.61,4.51,16.81-12.62,61.78-6.71,83.8ZM829.23,19.81c10.43-2.8,20.04,1.77,22.92,12.49,3.96,14.78-3.6,31.72-16.93,35.29-10.14,2.72-20.91-1.53-23.71-11.96-4.04-15.07,3.53-32.01,17.72-35.82Z" fill="#93278f"/><path d="M954.92,217.18c1.17,4.35.92,6.9-3.72,8.14-13.62,3.65-36.01-3.38-38.81-13.82-2.49-9.27.38-28.68,2.47-50.98-.16-.58-.52-.79-.81-.71-2.03.54-10.61,13.72-31.18,19.24-14.78,3.96-26.69-3.4-31.05-19.62-10.11-37.67,17.18-88.78,64.41-101.46,24.92-6.69,46.77,2.98,48.56,9.65,3.19,11.88-20.61,109.58-9.88,149.57ZM891.98,141.19c.78,2.9,3.14,4.75,6.62,3.82,15.36-4.12,26.73-57.8,25.02-64.18-.7-2.61-2.17-3.46-4.49-2.83-14.2,3.81-32.2,44.36-27.15,63.19Z" fill="#93278f"/><path d="M83.7,314.03c-3.19.85-4.23-.73-6.19-4.55-3.08-5.7-8.42-11.72-15.09-9.93-4.06,1.09-5.96,4.4-4.95,8.16,3.96,14.78,38.82,10.4,44.73,32.42,5.36,19.99-7.63,38.7-41.53,47.8-29.55,7.93-49.32-3.23-51.42-11.05-2.25-8.4,11.42-25.74,21.27-28.38,4.06-1.09,5.68.34,6.88,2.5,4.67,9.31,13.2,14.47,19.58,12.76,3.48-.93,5.46-3.95,4.61-7.14-4.98-18.54-41.02-11.67-46.86-33.4-5.21-19.41,14.76-38.75,44.32-46.68,23.76-6.38,40.49,1.56,43.21,11.7,2.02,7.53-11.31,23.84-18.55,25.79Z" fill="#2e3192"/><path d="M185.99,242.48c16.81-4.51,28.64,2.56,33.77,21.69,9.25,34.48-8.66,84.64-44.88,94.35-12.17,3.27-23.23-.91-24.1-.68-.58.16-.79.52-1.06,1.84-2.95,14.46-6.92,45.96-2.42,62.77,1.17,4.35.92,6.9-3.72,8.14-13.62,3.65-33.88-2.4-36.76-13.12-5.99-22.31,14.69-123.53,7.46-150.47-.78-2.9,1.58-5.7,7.08-7.18,24.05-6.45,30.76,11.62,32.21,11.24,1.16-.31,10.67-22.74,32.4-28.57ZM180.65,274.66c-1.01-3.77-4.16-5.1-6.77-4.4-12.17,3.27-25.14,48.68-21.65,61.72.7,2.61,3.64,4.3,6.25,3.6,15.65-4.2,27.07-42.67,22.17-60.93Z" fill="#2e3192"/><path d="M320.14,276.06c2.32-.62,5.26,1.07,5.96,3.68,1.4,5.22-7.03,39.78-52.52,51.99-19.7,5.29-39.41-2.16-45.08-23.31-9.64-35.93,19.76-82.64,59.45-93.29,22.31-5.99,34.11,3.27,37.14,14.57,5.99,22.31-25.55,50.65-50.3,62.57,3.37,5.62,8.94,7.85,17.34,5.6,19.7-5.29,23.66-20.64,28.01-21.8ZM270.65,275.67c17.43-10.27,29.43-28.08,27.02-37.07-.93-3.48-3.35-4.38-6.25-3.6-9.27,2.49-20.88,21.75-20.77,40.67Z" fill="#2e3192"/><path d="M379.34,304.6c-25.5,6.84-42.77-3.12-48.52-24.56-8.94-33.32,22.02-82.32,59.98-92.5,22.89-6.14,35.6.7,39.02,13.45,4.59,17.1-12.72,34.78-28.95,39.14-2.61.7-5.02-.2-5.49-1.94-.7-2.61.65-4.52,2.81-10.38,2.02-5.2,4.08-12.59,2.76-17.51-.93-3.48-3.14-4.75-6.61-3.82-13.04,3.5-21.61,34.06-17.02,51.16,3.11,11.59,9.86,14.75,20,12.03,19.12-5.13,23.66-20.64,28.01-21.8,2.03-.54,4.97,1.15,5.67,3.76,1.4,5.22-10.78,42.03-51.63,52.99Z" fill="#2e3192"/><path d="M435.08,201.74c-.93-3.48.96-16.1,3.79-20.59,2.2-3.39,5.6-4.61,9.65-5.7,2.56-20.57,4.87-38.58,2.92-45.82-.7-2.61,1.36-5.34,6.87-6.81,12.17-3.27,31.53,5.21,33.78,13.61,1.09,4.06-.85,14.21-2.43,27.99,12.17-3.27,13.89-4.97,17.07-5.82,2.03-.54,3.21.38,3.75,2.41,2.88,10.72-.73,25.05-24.2,31.34-3.33,17.67-9.87,65.08-6.92,76.09,1.17,4.35.71,7.27-3.93,8.51-13.33,3.58-33.1,5.15-35.89-5.28-3.42-12.75,7.64-59.51,5.23-68.49-2.9.78-8.69,2.33-9.7-1.43Z" fill="#2e3192"/><path d="M614.74,239.57c-23.47,6.3-37.1-7.44-39.12-6.9-3.48.93-13.9,21.12-40.27,28.2-14.78,3.96-26.69-3.4-31.05-19.62-10.11-37.67,17.18-88.78,64.41-101.46,24.92-6.69,46.77,2.98,48.56,9.65,1.48,5.5-14.2,37.36-4.64,73,2.33,8.69,4.59,9.02,5.53,12.49.54,2.03-.52,3.87-3.41,4.64ZM544.45,223.02c.78,2.9,3.14,4.75,6.62,3.82,15.36-4.12,26.73-57.8,25.02-64.18-.7-2.61-2.17-3.46-4.49-2.83-17.67,4.74-32.2,44.36-27.15,63.19Z" fill="#2e3192"/><path d="M694.37,150.18c-3.19.85-4.23-.73-6.19-4.55-3.08-5.7-8.42-11.72-15.09-9.93-4.06,1.09-5.96,4.4-4.95,8.16,3.96,14.78,38.82,10.4,44.73,32.42,5.36,19.99-7.63,38.7-41.53,47.8-29.55,7.93-49.32-3.23-51.42-11.05-2.25-8.4,11.42-25.74,21.27-28.38,4.06-1.09,5.68.34,6.88,2.5,4.67,9.31,13.2,14.47,19.58,12.76,3.48-.93,5.46-3.95,4.61-7.14-4.98-18.54-41.03-11.67-46.86-33.4-5.21-19.41,14.76-38.75,44.32-46.68,23.76-6.38,40.49,1.56,43.21,11.7,2.02,7.53-11.31,23.84-18.55,25.79Z" fill="#2e3192"/><path d="M718.39,125.72c-.93-3.48.96-16.1,3.79-20.59,2.2-3.39,5.6-4.61,9.65-5.7,2.56-20.57,4.87-38.58,2.92-45.82-.7-2.61,1.36-5.34,6.87-6.81,12.17-3.27,31.53,5.21,33.78,13.61,1.09,4.06-.85,14.21-2.43,27.99,12.17-3.27,13.89-4.97,17.07-5.82,2.03-.54,3.21.38,3.75,2.41,2.88,10.72-.73,25.05-24.2,31.34-3.33,17.67-9.87,65.08-6.92,76.09,1.17,4.35.71,7.27-3.93,8.51-13.33,3.58-33.1,5.15-35.89-5.28-3.42-12.75,7.64-59.51,5.23-68.49-2.9.78-8.69,2.33-9.7-1.43Z" fill="#2e3192"/><path d="M828.21,174.84c1.17,4.35,1,7.19-3.64,8.43-13.62,3.65-33.38,5.23-36.18-5.2-5.6-20.86,12.18-70.36,5.96-93.54-.78-2.9,1.29-5.63,6.79-7.1,17.39-4.66,31.6,5.5,33.78,13.61,4.51,16.81-12.62,61.78-6.71,83.8ZM820.23,10.81c10.43-2.8,20.04,1.77,22.92,12.49,3.96,14.78-3.6,31.72-16.93,35.29-10.14,2.72-20.91-1.53-23.71-11.96-4.04-15.07,3.53-32.01,17.72-35.82Z" fill="#2e3192"/><path d="M945.92,208.18c1.17,4.35.92,6.9-3.72,8.14-13.62,3.65-36.01-3.38-38.81-13.82-2.49-9.27.38-28.68,2.47-50.98-.16-.58-.52-.79-.81-.71-2.03.54-10.61,13.72-31.18,19.24-14.78,3.96-26.69-3.4-31.05-19.62-10.11-37.67,17.18-88.78,64.41-101.46,24.92-6.69,46.77,2.98,48.56,9.65,3.19,11.88-20.61,109.58-9.88,149.57ZM882.98,132.19c.78,2.9,3.14,4.75,6.62,3.82,15.36-4.12,26.73-57.8,25.02-64.18-.7-2.61-2.17-3.46-4.49-2.83-14.2,3.81-32.2,44.36-27.15,63.19Z" fill="#2e3192"/><path d="M76.7,306.03c-3.19.85-4.23-.73-6.19-4.55-3.08-5.7-8.42-11.72-15.09-9.93-4.06,1.09-5.96,4.4-4.95,8.16,3.96,14.78,38.82,10.4,44.73,32.42,5.36,19.99-7.63,38.7-41.53,47.8-29.55,7.93-49.32-3.23-51.42-11.05-2.25-8.4,11.42-25.74,21.27-28.38,4.06-1.09,5.68.34,6.88,2.5,4.67,9.31,13.2,14.47,19.58,12.76,3.48-.93,5.46-3.95,4.61-7.14-4.98-18.54-41.02-11.67-46.86-33.4-5.21-19.41,14.76-38.75,44.32-46.68,23.76-6.38,40.49,1.56,43.21,11.7,2.02,7.53-11.31,23.84-18.55,25.79Z" fill="#fff" stroke="#2e3192" stroke-linecap="round" stroke-linejoin="round" stroke-width="4"/><path d="M178.99,234.48c16.81-4.51,28.64,2.56,33.77,21.69,9.25,34.48-8.66,84.64-44.88,94.35-12.17,3.27-23.23-.91-24.1-.68-.58.16-.79.52-1.06,1.84-2.95,14.46-6.92,45.96-2.42,62.77,1.17,4.35.92,6.9-3.72,8.14-13.62,3.65-33.88-2.4-36.76-13.12-5.99-22.31,14.69-123.53,7.46-150.47-.78-2.9,1.58-5.7,7.08-7.18,24.05-6.45,30.76,11.62,32.21,11.24,1.16-.31,10.67-22.74,32.4-28.57ZM173.65,266.66c-1.01-3.77-4.16-5.1-6.77-4.4-12.17,3.27-25.14,48.68-21.65,61.72.7,2.61,3.64,4.3,6.25,3.6,15.65-4.2,27.07-42.67,22.17-60.93Z" fill="#fff" stroke="#2e3192" stroke-linecap="round" stroke-linejoin="round" stroke-width="4"/><path d="M313.14,268.06c2.32-.62,5.26,1.07,5.96,3.68,1.4,5.22-7.03,39.78-52.52,51.99-19.7,5.29-39.41-2.16-45.08-23.31-9.64-35.93,19.76-82.64,59.45-93.29,22.31-5.99,34.11,3.27,37.14,14.57,5.99,22.31-25.55,50.65-50.3,62.57,3.37,5.62,8.94,7.85,17.34,5.6,19.7-5.29,23.66-20.64,28.01-21.8ZM263.65,267.67c17.43-10.27,29.43-28.08,27.02-37.07-.93-3.48-3.35-4.38-6.25-3.6-9.27,2.49-20.88,21.75-20.77,40.67Z" fill="#fff" stroke="#2e3192" stroke-linecap="round" stroke-linejoin="round" stroke-width="4"/><path d="M372.34,296.6c-25.5,6.84-42.77-3.12-48.52-24.56-8.94-33.32,22.02-82.32,59.98-92.5,22.89-6.14,35.6.7,39.02,13.45,4.59,17.1-12.72,34.78-28.95,39.14-2.61.7-5.02-.2-5.49-1.94-.7-2.61.65-4.52,2.81-10.38,2.02-5.2,4.08-12.59,2.76-17.51-.93-3.48-3.14-4.75-6.61-3.82-13.04,3.5-21.61,34.06-17.02,51.16,3.11,11.59,9.86,14.75,20,12.03,19.12-5.13,23.66-20.64,28.01-21.8,2.03-.54,4.97,1.15,5.67,3.76,1.4,5.22-10.78,42.03-51.63,52.99Z" fill="#fff" stroke="#2e3192" stroke-linecap="round" stroke-linejoin="round" stroke-width="4"/><path d="M428.08,193.74c-.93-3.48.96-16.1,3.79-20.59,2.2-3.39,5.6-4.61,9.65-5.7,2.56-20.57,4.87-38.58,2.92-45.82-.7-2.61,1.36-5.34,6.87-6.81,12.17-3.27,31.53,5.21,33.78,13.61,1.09,4.06-.85,14.21-2.43,27.99,12.17-3.27,13.89-4.97,17.07-5.82,2.03-.54,3.21.38,3.75,2.41,2.88,10.72-.73,25.05-24.2,31.34-3.33,17.67-9.87,65.08-6.92,76.09,1.17,4.35.71,7.27-3.93,8.51-13.33,3.58-33.1,5.15-35.89-5.28-3.42-12.75,7.64-59.51,5.23-68.49-2.9.78-8.69,2.33-9.7-1.43Z" fill="#fff" stroke="#2e3192" stroke-linecap="round" stroke-linejoin="round" stroke-width="4"/><path d="M607.74,231.57c-23.47,6.3-37.1-7.44-39.12-6.9-3.48.93-13.9,21.12-40.27,28.2-14.78,3.96-26.69-3.4-31.05-19.62-10.11-37.67,17.18-88.78,64.41-101.46,24.92-6.69,46.77,2.98,48.56,9.65,1.48,5.5-14.2,37.36-4.64,73,2.33,8.69,4.59,9.02,5.53,12.49.54,2.03-.52,3.87-3.41,4.64ZM537.45,215.02c.78,2.9,3.14,4.75,6.62,3.82,15.36-4.12,26.73-57.8,25.02-64.18-.7-2.61-2.17-3.46-4.49-2.83-17.67,4.74-32.2,44.36-27.15,63.19Z" fill="#fff" stroke="#2e3192" stroke-linecap="round" stroke-linejoin="round" stroke-width="4"/><path d="M687.37,142.18c-3.19.85-4.23-.73-6.19-4.55-3.08-5.7-8.42-11.72-15.09-9.93-4.06,1.09-5.96,4.4-4.95,8.16,3.96,14.78,38.82,10.4,44.73,32.42,5.36,19.99-7.63,38.7-41.53,47.8-29.55,7.93-49.32-3.23-51.42-11.05-2.25-8.4,11.42-25.74,21.27-28.38,4.06-1.09,5.68.34,6.88,2.5,4.67,9.31,13.2,14.47,19.58,12.76,3.48-.93,5.46-3.95,4.61-7.14-4.98-18.54-41.03-11.67-46.86-33.4-5.21-19.41,14.76-38.75,44.32-46.68,23.76-6.38,40.49,1.56,43.21,11.7,2.02,7.53-11.31,23.84-18.55,25.79Z" fill="#fff" stroke="#2e3192" stroke-linecap="round" stroke-linejoin="round" stroke-width="4"/><path d="M711.39,117.72c-.93-3.48.96-16.1,3.79-20.59,2.2-3.39,5.6-4.61,9.65-5.7,2.56-20.57,4.87-38.58,2.92-45.82-.7-2.61,1.36-5.34,6.87-6.81,12.17-3.27,31.53,5.21,33.78,13.61,1.09,4.06-.85,14.21-2.43,27.99,12.17-3.27,13.89-4.97,17.07-5.82,2.03-.54,3.21.38,3.75,2.41,2.88,10.72-.73,25.05-24.2,31.34-3.33,17.67-9.87,65.08-6.92,76.09,1.17,4.35.71,7.27-3.93,8.51-13.33,3.58-33.1,5.15-35.89-5.28-3.42-12.75,7.64-59.51,5.23-68.49-2.9.78-8.69,2.33-9.7-1.43Z" fill="#fff" stroke="#2e3192" stroke-linecap="round" stroke-linejoin="round" stroke-width="4"/><path d="M821.21,166.84c1.17,4.35,1,7.19-3.64,8.43-13.62,3.65-33.38,5.23-36.18-5.2-5.6-20.86,12.18-70.36,5.96-93.54-.78-2.9,1.29-5.63,6.79-7.1,17.39-4.66,31.6,5.5,33.78,13.61,4.51,16.81-12.62,61.78-6.71,83.8ZM813.23,2.81c10.43-2.8,20.04,1.77,22.92,12.49,3.96,14.78-3.6,31.72-16.93,35.29-10.14,2.72-20.91-1.53-23.71-11.96-4.04-15.07,3.53-32.01,17.72-35.82Z" fill="#fff" stroke="#2e3192" stroke-linecap="round" stroke-linejoin="round" stroke-width="4"/><path d="M938.92,200.18c1.17,4.35.92,6.9-3.72,8.14-13.62,3.65-36.01-3.38-38.81-13.82-2.49-9.27.38-28.68,2.47-50.98-.16-.58-.52-.79-.81-.71-2.03.54-10.61,13.72-31.18,19.24-14.78,3.96-26.69-3.4-31.05-19.62-10.11-37.67,17.18-88.78,64.41-101.46,24.92-6.69,46.77,2.98,48.56,9.65,3.19,11.88-20.61,109.58-9.88,149.57ZM875.98,124.19c.78,2.9,3.14,4.75,6.62,3.82,15.36-4.12,26.73-57.8,25.02-64.18-.7-2.61-2.17-3.46-4.49-2.83-14.2,3.81-32.2,44.36-27.15,63.19Z" fill="#fff" stroke="#2e3192" stroke-linecap="round" stroke-linejoin="round" stroke-width="4"/></g></svg>